<svg xmlns="http://www.w3.org/2000/svg" xmlns:xlink="http://www.w3.org/1999/xlink" width="500" zoomAndPan="magnify" viewBox="0 0 375 374.999991" height="500" preserveAspectRatio="xMidYMid meet" version="1.0"><defs><g/></defs><rect x="-37.5" width="450" fill="#ffffff" y="-37.499999" height="449.999989" fill-opacity="1"/><rect x="-37.5" width="450" fill="#ffffff" y="-37.499999" height="449.999989" fill-opacity="1"/><rect x="-37.5" width="450" fill="#ffffff" y="-37.499999" height="449.999989" fill-opacity="1"/><g fill="#38b6ff" fill-opacity="1"><g transform="translate(178.002104, 192.454056)"><g><path d="M 0.832031 0 L 1.945312 0 L 1.945312 -4.820312 L 3.539062 -0.5625 L 4.664062 -0.5625 L 6.257812 -4.820312 L 6.257812 0 L 7.371094 0 L 7.371094 -6.445312 L 5.8125 -6.445312 L 4.101562 -1.859375 L 2.390625 -6.445312 L 0.832031 -6.445312 Z M 0.832031 0 "/></g></g></g><g fill="#38b6ff" fill-opacity="1"><g transform="translate(186.950752, 192.454056)"><g><path d="M 0.0546875 0 L 1.320312 0 L 1.820312 -1.402344 L 4.324219 -1.402344 L 4.820312 0 L 6.070312 0 L 3.503906 -6.445312 L 2.636719 -6.445312 Z M 2.210938 -2.390625 L 3.074219 -4.746094 L 3.933594 -2.390625 Z M 2.210938 -2.390625 "/></g></g></g><g fill="#38b6ff" fill-opacity="1"><g transform="translate(193.824087, 192.454056)"><g><path d="M 0.832031 0.0078125 L 1.988281 0.0078125 L 1.988281 -2.753906 L 2.765625 -2.753906 L 4.351562 0.0078125 L 5.679688 0.0078125 L 3.886719 -2.871094 C 4.617188 -3.121094 5.144531 -3.734375 5.144531 -4.546875 C 5.144531 -5.757812 4.121094 -6.445312 2.914062 -6.445312 L 0.832031 -6.445312 Z M 2 -3.699219 L 2 -5.410156 L 2.925781 -5.410156 C 3.585938 -5.410156 4 -5.0625 4 -4.53125 C 4 -4.046875 3.636719 -3.726562 3.019531 -3.699219 Z M 2 -3.699219 "/></g></g></g><g fill="#38b6ff" fill-opacity="1"><g transform="translate(200.355337, 192.454056)"><g><path d="M 0.832031 0 L 1.988281 0 L 1.988281 -1.675781 L 3.296875 -3.027344 L 5.289062 0 L 6.730469 0 L 4.101562 -3.804688 L 6.679688 -6.445312 L 5.128906 -6.445312 L 1.988281 -3.082031 L 1.988281 -6.445312 L 0.832031 -6.445312 Z M 0.832031 0 "/></g></g></g><g fill="#38b6ff" fill-opacity="1"><g transform="translate(207.903719, 192.454056)"><g><path d="M 0.832031 0 L 5.117188 0 L 5.117188 -1.09375 L 1.988281 -1.09375 L 1.988281 -2.691406 L 4.902344 -2.691406 L 4.902344 -3.753906 L 1.988281 -3.753906 L 1.988281 -5.382812 L 5.117188 -5.382812 L 5.117188 -6.445312 L 0.832031 -6.445312 Z M 0.832031 0 "/></g></g></g><g fill="#38b6ff" fill-opacity="1"><g transform="translate(214.330062, 192.454056)"><g><path d="M 2.113281 0 L 3.269531 0 L 3.269531 -5.410156 L 5.289062 -5.410156 L 5.289062 -6.445312 L 0.0898438 -6.445312 L 0.0898438 -5.410156 L 2.113281 -5.410156 Z M 2.113281 0 "/></g></g></g><g fill="#38b6ff" fill-opacity="1"><g transform="translate(220.459933, 192.454056)"><g><path d="M 0.832031 0 L 1.988281 0 L 1.988281 -6.445312 L 0.832031 -6.445312 Z M 0.832031 0 "/></g></g></g><g fill="#38b6ff" fill-opacity="1"><g transform="translate(224.02645, 192.454056)"><g><path d="M 0.832031 0 L 1.945312 0 L 1.945312 -4.519531 L 4.644531 0 L 5.804688 0 L 5.804688 -6.445312 L 4.691406 -6.445312 L 4.691406 -1.933594 L 1.980469 -6.445312 L 0.832031 -6.445312 Z M 0.832031 0 "/></g></g></g><g fill="#38b6ff" fill-opacity="1"><g transform="translate(231.40607, 192.454056)"><g><path d="M 3.496094 0.0898438 C 4.351562 0.0898438 5.054688 -0.300781 5.402344 -0.90625 L 5.5 0 L 6.417969 0 L 6.417969 -3.484375 L 3.832031 -3.484375 L 3.832031 -2.550781 L 5.296875 -2.550781 C 5.167969 -1.570312 4.421875 -0.945312 3.496094 -0.945312 C 2.113281 -0.945312 1.523438 -1.988281 1.523438 -3.269531 C 1.523438 -4.464844 2.113281 -5.539062 3.476562 -5.539062 C 4.296875 -5.539062 4.972656 -5.144531 5.269531 -4.269531 L 6.296875 -4.699219 C 5.777344 -5.902344 4.753906 -6.550781 3.484375 -6.550781 C 1.355469 -6.550781 0.375 -4.992188 0.375 -3.226562 C 0.375 -1.457031 1.375 0.0898438 3.496094 0.0898438 Z M 3.496094 0.0898438 "/></g></g></g><g fill="#38b6ff" fill-opacity="1"><g transform="translate(239.150581, 192.454056)"><g><path d="M 6.054688 -0.355469 L 5.097656 -1.433594 C 5.378906 -1.910156 5.546875 -2.472656 5.578125 -3.066406 L 4.492188 -3.175781 C 4.492188 -2.871094 4.4375 -2.5625 4.339844 -2.28125 L 3.425781 -3.304688 C 4.054688 -3.726562 4.589844 -4.238281 4.589844 -5.019531 C 4.589844 -5.867188 3.8125 -6.523438 2.878906 -6.523438 C 2 -6.523438 1.09375 -5.953125 1.09375 -5.007812 C 1.09375 -4.316406 1.574219 -3.773438 1.855469 -3.488281 C 1.09375 -3.039062 0.363281 -2.480469 0.363281 -1.503906 C 0.363281 -0.464844 1.300781 0.105469 2.476562 0.105469 C 3.230469 0.105469 3.894531 -0.167969 4.421875 -0.625 L 5.269531 0.347656 Z M 2.167969 -4.992188 C 2.167969 -5.417969 2.503906 -5.652344 2.886719 -5.652344 C 3.324219 -5.652344 3.558594 -5.34375 3.558594 -5 C 3.558594 -4.582031 3.195312 -4.273438 2.710938 -3.984375 C 2.507812 -4.214844 2.167969 -4.652344 2.167969 -4.992188 Z M 2.449219 -0.839844 C 1.851562 -0.839844 1.4375 -1.054688 1.4375 -1.488281 C 1.4375 -2.019531 1.945312 -2.390625 2.550781 -2.765625 L 3.769531 -1.375 C 3.425781 -1.042969 2.980469 -0.839844 2.449219 -0.839844 Z M 2.449219 -0.839844 "/></g></g></g><g fill="#38b6ff" fill-opacity="1"><g transform="translate(246.201797, 192.454056)"><g><path d="M 0.0546875 0 L 1.320312 0 L 1.820312 -1.402344 L 4.324219 -1.402344 L 4.820312 0 L 6.070312 0 L 3.503906 -6.445312 L 2.636719 -6.445312 Z M 2.210938 -2.390625 L 3.074219 -4.746094 L 3.933594 -2.390625 Z M 2.210938 -2.390625 "/></g></g></g><g fill="#38b6ff" fill-opacity="1"><g transform="translate(253.075128, 192.454056)"><g><path d="M 0.832031 0 L 2.691406 0 C 4.859375 0 6.054688 -1.167969 6.054688 -3.175781 C 6.054688 -5.269531 4.894531 -6.445312 2.699219 -6.445312 L 0.832031 -6.445312 Z M 1.988281 -1.0625 L 1.988281 -5.382812 L 2.683594 -5.382812 C 4.269531 -5.382812 4.894531 -4.753906 4.894531 -3.226562 C 4.894531 -1.613281 4 -1.0625 2.578125 -1.0625 Z M 1.988281 -1.0625 "/></g></g></g><g fill="#38b6ff" fill-opacity="1"><g transform="translate(260.249494, 192.454056)"><g><path d="M 2.636719 0 L 3.503906 0 L 6.070312 -6.445312 L 4.804688 -6.445312 L 3.074219 -1.878906 L 1.335938 -6.445312 L 0.0546875 -6.445312 Z M 2.636719 0 "/></g></g></g><g fill="#38b6ff" fill-opacity="1"><g transform="translate(267.122825, 192.454056)"><g><path d="M 0.832031 0 L 5.117188 0 L 5.117188 -1.09375 L 1.988281 -1.09375 L 1.988281 -2.691406 L 4.902344 -2.691406 L 4.902344 -3.753906 L 1.988281 -3.753906 L 1.988281 -5.382812 L 5.117188 -5.382812 L 5.117188 -6.445312 L 0.832031 -6.445312 Z M 0.832031 0 "/></g></g></g><g fill="#38b6ff" fill-opacity="1"><g transform="translate(273.549166, 192.454056)"><g><path d="M 0.832031 0.0078125 L 1.988281 0.0078125 L 1.988281 -2.753906 L 2.765625 -2.753906 L 4.351562 0.0078125 L 5.679688 0.0078125 L 3.886719 -2.871094 C 4.617188 -3.121094 5.144531 -3.734375 5.144531 -4.546875 C 5.144531 -5.757812 4.121094 -6.445312 2.914062 -6.445312 L 0.832031 -6.445312 Z M 2 -3.699219 L 2 -5.410156 L 2.925781 -5.410156 C 3.585938 -5.410156 4 -5.0625 4 -4.53125 C 4 -4.046875 3.636719 -3.726562 3.019531 -3.699219 Z M 2 -3.699219 "/></g></g></g><g fill="#38b6ff" fill-opacity="1"><g transform="translate(280.080413, 192.454056)"><g><path d="M 2.113281 0 L 3.269531 0 L 3.269531 -5.410156 L 5.289062 -5.410156 L 5.289062 -6.445312 L 0.0898438 -6.445312 L 0.0898438 -5.410156 L 2.113281 -5.410156 Z M 2.113281 0 "/></g></g></g><g fill="#38b6ff" fill-opacity="1"><g transform="translate(286.21028, 192.454056)"><g><path d="M 0.832031 0 L 1.988281 0 L 1.988281 -6.445312 L 0.832031 -6.445312 Z M 0.832031 0 "/></g></g></g><g fill="#38b6ff" fill-opacity="1"><g transform="translate(289.776793, 192.454056)"><g><path d="M 2.671875 0.0742188 C 3.90625 0.0742188 4.914062 -0.660156 4.914062 -1.878906 C 4.914062 -4.019531 1.792969 -3.609375 1.792969 -4.820312 C 1.792969 -5.234375 2.148438 -5.511719 2.605469 -5.511719 C 3.039062 -5.511719 3.421875 -5.261719 3.644531 -4.820312 L 4.609375 -5.410156 C 4.164062 -6.195312 3.441406 -6.542969 2.644531 -6.542969 C 1.558594 -6.542969 0.632812 -5.902344 0.632812 -4.761719 C 0.632812 -2.664062 3.753906 -3.109375 3.753906 -1.773438 C 3.753906 -1.320312 3.378906 -0.953125 2.691406 -0.953125 C 2.007812 -0.953125 1.4375 -1.308594 1.355469 -2.113281 L 0.207031 -1.820312 C 0.410156 -0.550781 1.53125 0.0742188 2.671875 0.0742188 Z M 2.671875 0.0742188 "/></g></g></g><g fill="#38b6ff" fill-opacity="1"><g transform="translate(295.710532, 192.454056)"><g><path d="M 0.832031 0 L 1.988281 0 L 1.988281 -6.445312 L 0.832031 -6.445312 Z M 0.832031 0 "/></g></g></g><g fill="#38b6ff" fill-opacity="1"><g transform="translate(299.277045, 192.454056)"><g><path d="M 0.832031 0 L 1.945312 0 L 1.945312 -4.519531 L 4.644531 0 L 5.804688 0 L 5.804688 -6.445312 L 4.691406 -6.445312 L 4.691406 -1.933594 L 1.980469 -6.445312 L 0.832031 -6.445312 Z M 0.832031 0 "/></g></g></g><g fill="#38b6ff" fill-opacity="1"><g transform="translate(306.656662, 192.454056)"><g><path d="M 3.496094 0.0898438 C 4.351562 0.0898438 5.054688 -0.300781 5.402344 -0.90625 L 5.5 0 L 6.417969 0 L 6.417969 -3.484375 L 3.832031 -3.484375 L 3.832031 -2.550781 L 5.296875 -2.550781 C 5.167969 -1.570312 4.421875 -0.945312 3.496094 -0.945312 C 2.113281 -0.945312 1.523438 -1.988281 1.523438 -3.269531 C 1.523438 -4.464844 2.113281 -5.539062 3.476562 -5.539062 C 4.296875 -5.539062 4.972656 -5.144531 5.269531 -4.269531 L 6.296875 -4.699219 C 5.777344 -5.902344 4.753906 -6.550781 3.484375 -6.550781 C 1.355469 -6.550781 0.375 -4.992188 0.375 -3.226562 C 0.375 -1.457031 1.375 0.0898438 3.496094 0.0898438 Z M 3.496094 0.0898438 "/></g></g></g><path fill="#38b6ff" d="M 114.351562 168.578125 C 108.6875 168.578125 104.101562 173.167969 104.101562 178.828125 C 104.101562 184.492188 108.6875 189.078125 114.351562 189.078125 C 120.015625 189.078125 124.601562 184.492188 124.601562 178.828125 C 124.601562 173.167969 120.015625 168.578125 114.351562 168.578125 Z M 145.101562 178.828125 C 145.101562 161.839844 131.339844 148.078125 114.351562 148.078125 C 97.363281 148.078125 83.601562 161.839844 83.601562 178.828125 C 83.601562 190.207031 89.777344 200.097656 98.949219 205.429688 L 104.128906 196.511719 C 98.003906 192.949219 93.851562 186.414062 93.851562 178.828125 C 93.851562 167.503906 103.023438 158.328125 114.351562 158.328125 C 125.679688 158.328125 134.851562 167.503906 134.851562 178.828125 C 134.851562 186.414062 130.699219 192.949219 124.574219 196.484375 L 129.753906 205.402344 C 138.925781 200.097656 145.101562 190.207031 145.101562 178.828125 Z M 114.351562 127.578125 C 86.035156 127.578125 63.101562 150.515625 63.101562 178.828125 C 63.101562 197.765625 73.402344 214.269531 88.699219 223.136719 L 93.824219 214.269531 C 81.601562 207.195312 73.351562 193.972656 73.351562 178.828125 C 73.351562 156.175781 91.699219 137.828125 114.351562 137.828125 C 137.003906 137.828125 155.351562 156.175781 155.351562 178.828125 C 155.351562 193.972656 147.101562 207.195312 134.878906 214.296875 L 140.003906 223.160156 C 155.300781 214.269531 165.601562 197.765625 165.601562 178.828125 C 165.601562 150.515625 142.640625 127.578125 114.351562 127.578125 Z M 114.351562 127.578125 " fill-opacity="1" fill-rule="nonzero"/><g fill="#9f3f73" fill-opacity="1"><g transform="translate(169.761035, 177.667079)"><g><path d="M 9.480469 -6.472656 C 10.414062 -6.722656 11.183594 -7.261719 11.785156 -8.050781 C 12.386719 -8.835938 12.695312 -9.769531 12.695312 -10.828125 C 12.695312 -12.15625 12.238281 -13.277344 11.367188 -14.191406 C 10.476562 -15.101562 9.378906 -15.558594 8.070312 -15.558594 L 1.578125 -15.558594 L 1.578125 0 L 4.8125 0 L 4.8125 -6.140625 L 6.285156 -6.140625 L 10.144531 0 L 13.878906 0 Z M 7.613281 -8.816406 L 4.8125 -8.816406 L 4.8125 -12.675781 L 7.613281 -12.675781 C 8.175781 -12.675781 8.652344 -12.488281 9.023438 -12.117188 C 9.398438 -11.742188 9.585938 -11.285156 9.585938 -10.746094 C 9.585938 -10.1875 9.398438 -9.730469 9.023438 -9.355469 C 8.652344 -8.984375 8.175781 -8.816406 7.613281 -8.816406 Z M 7.613281 -8.816406 "/></g></g></g><g fill="#9f3f73" fill-opacity="1"><g transform="translate(183.631692, 177.667079)"><g><path d="M 9.003906 0.207031 C 11.203125 0.207031 13.089844 -0.558594 14.648438 -2.117188 C 16.203125 -3.671875 16.992188 -5.558594 16.992188 -7.78125 C 16.992188 -9.980469 16.203125 -11.867188 14.648438 -13.421875 C 13.089844 -14.980469 11.203125 -15.765625 9.003906 -15.765625 C 6.785156 -15.765625 4.894531 -14.980469 3.339844 -13.421875 C 1.785156 -11.867188 1.015625 -9.980469 1.015625 -7.78125 C 1.015625 -5.558594 1.785156 -3.671875 3.339844 -2.117188 C 4.894531 -0.558594 6.785156 0.207031 9.003906 0.207031 Z M 9.003906 -2.964844 C 7.632812 -2.964844 6.492188 -3.421875 5.582031 -4.355469 C 4.648438 -5.269531 4.191406 -6.410156 4.191406 -7.78125 C 4.191406 -9.128906 4.648438 -10.269531 5.582031 -11.203125 C 6.492188 -12.117188 7.632812 -12.59375 9.003906 -12.59375 C 10.351562 -12.59375 11.492188 -12.117188 12.425781 -11.203125 C 13.339844 -10.269531 13.816406 -9.128906 13.816406 -7.78125 C 13.816406 -6.410156 13.339844 -5.269531 12.425781 -4.355469 C 11.492188 -3.421875 10.351562 -2.964844 9.003906 -2.964844 Z M 9.003906 -2.964844 "/></g></g></g><g fill="#9f3f73" fill-opacity="1"><g transform="translate(201.628294, 177.667079)"><g><path d="M 15.144531 -15.558594 L 10.082031 -6.949219 L 5.0625 -15.558594 L 1.578125 -15.558594 L 1.578125 0 L 4.8125 0 L 4.8125 -10.433594 L 10.082031 -1.203125 L 15.394531 -10.414062 L 15.394531 0 L 18.609375 0 L 18.609375 -15.558594 Z M 15.144531 -15.558594 "/></g></g></g><g fill="#9f3f73" fill-opacity="1"><g transform="translate(221.801913, 177.667079)"><g><path d="M 1.699219 0 L 4.9375 0 L 4.9375 -15.558594 L 1.699219 -15.558594 Z M 1.699219 0 "/></g></g></g><g fill="#9f3f73" fill-opacity="1"><g transform="translate(228.415875, 177.667079)"><g><path d="M 1.390625 -4.253906 L 8.652344 -4.253906 L 8.652344 -6.535156 L 1.390625 -6.535156 Z M 1.390625 -4.253906 "/></g></g></g><g fill="#9f3f73" fill-opacity="1"><g transform="translate(238.471589, 177.667079)"><g><path d="M 12.46875 0 L 15.972656 0 L 9.730469 -15.558594 L 6.097656 -15.558594 L -0.144531 0 L 3.359375 0 L 4.480469 -3.007812 L 11.347656 -3.007812 Z M 5.496094 -5.726562 L 7.925781 -12.238281 L 10.351562 -5.726562 Z M 5.496094 -5.726562 "/></g></g></g><g fill="#9f3f73" fill-opacity="1"><g transform="translate(254.291185, 177.667079)"><g><path d="M 9.480469 -8.921875 L 9.480469 -6.035156 L 12.53125 -6.035156 L 12.53125 -4.5 C 11.636719 -3.464844 10.457031 -2.964844 8.960938 -2.964844 C 7.59375 -2.964844 6.472656 -3.421875 5.558594 -4.335938 C 4.648438 -5.25 4.191406 -6.410156 4.191406 -7.78125 C 4.191406 -9.148438 4.648438 -10.289062 5.558594 -11.203125 C 6.472656 -12.117188 7.632812 -12.59375 9.003906 -12.59375 C 10.539062 -12.59375 11.785156 -12.011719 12.695312 -10.890625 L 15.164062 -12.820312 C 14.4375 -13.734375 13.527344 -14.4375 12.449219 -14.980469 C 11.347656 -15.496094 10.207031 -15.765625 9.003906 -15.765625 C 6.785156 -15.765625 4.894531 -14.980469 3.339844 -13.421875 C 1.785156 -11.867188 1.015625 -9.980469 1.015625 -7.78125 C 1.015625 -5.558594 1.785156 -3.671875 3.320312 -2.117188 C 4.855469 -0.558594 6.742188 0.207031 8.960938 0.207031 C 10.644531 0.207031 11.96875 -0.269531 12.945312 -1.222656 L 13.234375 0 L 15.683594 0 L 15.683594 -8.921875 Z M 9.480469 -8.921875 "/></g></g></g><g fill="#9f3f73" fill-opacity="1"><g transform="translate(271.188925, 177.667079)"><g><path d="M 11.265625 -12.695312 L 11.265625 -15.558594 L 1.699219 -15.558594 L 1.699219 0 L 11.265625 0 L 11.265625 -2.863281 L 4.9375 -2.863281 L 4.9375 -6.347656 L 10.394531 -6.347656 L 10.394531 -9.210938 L 4.9375 -9.210938 L 4.9375 -12.695312 Z M 11.265625 -12.695312 "/></g></g></g><g fill="#9f3f73" fill-opacity="1"><g transform="translate(283.380169, 177.667079)"><g><path d="M 12.738281 -15.558594 L 12.738281 -4.855469 L 4.894531 -15.558594 L 1.578125 -15.558594 L 1.578125 0 L 4.8125 0 L 4.8125 -10.746094 L 12.632812 0 L 15.953125 0 L 15.953125 -15.558594 Z M 12.738281 -15.558594 "/></g></g></g><g fill="#9f3f73" fill-opacity="1"><g transform="translate(300.89991, 177.667079)"><g><path d="M 9.085938 0.207031 C 10.289062 0.207031 11.429688 -0.0429688 12.511719 -0.582031 C 13.589844 -1.097656 14.5 -1.824219 15.25 -2.738281 L 12.78125 -4.667969 C 11.847656 -3.527344 10.621094 -2.964844 9.085938 -2.964844 C 7.71875 -2.964844 6.578125 -3.421875 5.664062 -4.335938 C 4.730469 -5.25 4.273438 -6.410156 4.273438 -7.78125 C 4.273438 -9.148438 4.730469 -10.289062 5.664062 -11.203125 C 6.578125 -12.117188 7.71875 -12.59375 9.085938 -12.59375 C 10.621094 -12.59375 11.867188 -12.011719 12.78125 -10.890625 L 15.25 -12.820312 C 14.523438 -13.734375 13.609375 -14.4375 12.53125 -14.980469 C 11.453125 -15.496094 10.289062 -15.765625 9.085938 -15.765625 C 6.867188 -15.765625 4.980469 -14.980469 3.421875 -13.421875 C 1.867188 -11.867188 1.097656 -9.980469 1.097656 -7.78125 C 1.097656 -5.558594 1.867188 -3.671875 3.421875 -2.117188 C 4.980469 -0.558594 6.867188 0.207031 9.085938 0.207031 Z M 9.085938 0.207031 "/></g></g></g><g fill="#9f3f73" fill-opacity="1"><g transform="translate(316.678046, 177.667079)"><g><path d="M 13.835938 -15.558594 L 10.207031 -15.558594 L 6.785156 -10.164062 L 3.382812 -15.558594 L -0.289062 -15.558594 L 5.164062 -7.300781 L 5.164062 0 L 8.402344 0 L 8.402344 -7.34375 Z M 13.835938 -15.558594 "/></g></g></g><path stroke-linecap="butt" transform="matrix(0.833507, 0, 0, 0.833507, 162.702841, 158.523038)" fill="none" stroke-linejoin="miter" d="M 18.877664 14.233457 C 19.993057 13.938206 20.916303 13.286779 21.642714 12.344787 C 22.359752 11.398109 22.734674 10.278029 22.734674 9.007981 C 22.734674 7.414563 22.186351 6.074216 21.141256 4.972883 C 20.068041 3.880923 18.746441 3.332599 17.181142 3.332599 L 9.392137 3.332599 L 9.392137 21.999029 L 13.27258 21.999029 L 13.27258 14.636498 L 15.0394 14.636498 L 19.669687 21.999029 L 24.150005 21.999029 Z M 16.632819 11.421542 L 13.27258 11.421542 L 13.27258 6.791255 L 16.632819 6.791255 C 17.307678 6.791255 17.879434 7.016208 18.329341 7.466114 C 18.769874 7.916021 18.994827 8.459658 18.994827 9.106398 C 18.994827 9.781258 18.769874 10.324895 18.329341 10.774801 C 17.879434 11.220021 17.307678 11.421542 16.632819 11.421542 Z M 34.947759 22.247415 C 37.581586 22.247415 39.849864 21.324169 41.715101 19.458932 C 43.580338 17.593695 44.527016 15.330104 44.527016 12.668157 C 44.527016 10.029644 43.580338 7.761365 41.715101 5.896128 C 39.849864 4.030891 37.581586 3.084213 34.947759 3.084213 C 32.27644 3.084213 30.017534 4.030891 28.147611 5.896128 C 26.282374 7.761365 25.363815 10.029644 25.363815 12.668157 C 25.363815 15.330104 26.282374 17.593695 28.147611 19.458932 C 30.017534 21.324169 32.27644 22.247415 34.947759 22.247415 Z M 34.947759 18.43727 C 33.298102 18.43727 31.929637 17.893633 30.837676 16.773553 C 29.717597 15.681593 29.164587 14.308441 29.164587 12.668157 C 29.164587 11.051306 29.717597 9.678154 30.837676 8.558075 C 31.929637 7.466114 33.298102 6.894358 34.947759 6.894358 C 36.559924 6.894358 37.928389 7.466114 39.048468 8.558075 C 40.145115 9.678154 40.716871 11.051306 40.716871 12.668157 C 40.716871 14.308441 40.145115 15.681593 39.048468 16.773553 C 37.928389 17.893633 36.559924 18.43727 34.947759 18.43727 Z M 63.901111 3.332599 L 57.832061 13.661701 L 51.80519 3.332599 L 47.624809 3.332599 L 47.624809 21.999029 L 51.505252 21.999029 L 51.505252 9.48132 L 57.832061 20.555579 L 64.201049 9.504753 L 64.201049 21.999029 L 68.058059 21.999029 L 68.058059 3.332599 Z M 71.975994 21.999029 L 75.861124 21.999029 L 75.861124 3.332599 L 71.975994 3.332599 Z M 79.535359 16.895403 L 88.252296 16.895403 L 88.252296 14.163159 L 79.535359 14.163159 Z M 104.894147 21.999029 L 109.102647 21.999029 L 101.608893 3.332599 L 97.250424 3.332599 L 89.761357 21.999029 L 93.969857 21.999029 L 95.31489 18.390405 L 103.553801 18.390405 Z M 96.5287 15.13327 L 99.443718 7.311459 L 102.35405 15.13327 Z M 120.289382 11.299692 L 120.289382 14.758348 L 123.949558 14.758348 L 123.949558 16.600152 C 122.881031 17.842081 121.456327 18.43727 119.666074 18.43727 C 118.02579 18.43727 116.680758 17.893633 115.588797 16.796986 C 114.492151 15.705026 113.939141 14.308441 113.939141 12.668157 C 113.939141 11.027874 114.492151 9.650035 115.588797 8.558075 C 116.680758 7.466114 118.072656 6.894358 119.717626 6.894358 C 121.55943 6.894358 123.054432 7.587964 124.151079 8.932997 L 127.108276 6.617853 C 126.241269 5.521206 125.144622 4.677632 123.851141 4.030891 C 122.534228 3.407584 121.161076 3.084213 119.717626 3.084213 C 117.050993 3.084213 114.792088 4.030891 112.917478 5.896128 C 111.052241 7.761365 110.138369 10.029644 110.138369 12.668157 C 110.138369 15.330104 111.052241 17.593695 112.894045 19.458932 C 114.73585 21.324169 117.004128 22.247415 119.666074 22.247415 C 121.68128 22.247415 123.274699 21.675659 124.44633 20.52746 L 124.793133 21.999029 L 127.736271 21.999029 L 127.736271 11.299692 Z M 142.700345 6.767822 L 142.700345 3.332599 L 131.227732 3.332599 L 131.227732 21.999029 L 142.700345 21.999029 L 142.700345 18.568492 L 135.112861 18.568492 L 135.112861 14.388112 L 141.65525 14.388112 L 141.65525 10.948203 L 135.112861 10.948203 L 135.112861 6.767822 Z M 159.098497 3.332599 L 159.098497 16.178365 L 149.692641 3.332599 L 145.704408 3.332599 L 145.704408 21.999029 L 149.589537 21.999029 L 149.589537 9.106398 L 158.971961 21.999029 L 162.955507 21.999029 L 162.955507 3.332599 Z M 175.735661 22.247415 C 177.183798 22.247415 178.547576 21.952164 179.841057 21.300737 C 181.139225 20.682115 182.231185 19.810422 183.130998 18.713775 L 180.164428 16.398631 C 179.049035 17.771783 177.577466 18.43727 175.735661 18.43727 C 174.095378 18.43727 172.722226 17.893633 171.625579 16.796986 C 170.510186 15.705026 169.961862 14.308441 169.961862 12.668157 C 169.961862 11.027874 170.510186 9.650035 171.625579 8.558075 C 172.722226 7.466114 174.095378 6.894358 175.735661 6.894358 C 177.577466 6.894358 179.072467 7.587964 180.164428 8.932997 L 183.130998 6.617853 C 182.254618 5.521206 181.162658 4.677632 179.869177 4.030891 C 178.571009 3.407584 177.183798 3.084213 175.735661 3.084213 C 173.073715 3.084213 170.805437 4.030891 168.9402 5.896128 C 167.074963 7.761365 166.151717 10.029644 166.151717 12.668157 C 166.151717 15.330104 167.074963 17.593695 168.9402 19.458932 C 170.805437 21.324169 173.073715 22.247415 175.735661 22.247415 Z M 200.363351 3.332599 L 196.009569 3.332599 L 191.899487 9.80469 L 187.82221 3.332599 L 183.416876 3.332599 L 189.963952 13.235227 L 189.963952 21.999029 L 193.844395 21.999029 L 193.844395 13.188362 Z M 200.363351 3.332599 " stroke="#18a4f6" stroke-width="0.933457" stroke-opacity="1" stroke-miterlimit="4"/><g fill="#9f3f73" fill-opacity="1"><g transform="translate(104.401718, 231.63001)"><g><path d="M 18.523438 -12.644531 C 20.347656 -13.132812 21.847656 -14.1875 23.019531 -15.726562 C 24.195312 -17.265625 24.804688 -19.089844 24.804688 -21.15625 C 24.804688 -23.75 23.914062 -25.941406 22.210938 -27.722656 C 20.46875 -29.507812 18.320312 -30.398438 15.765625 -30.398438 L 3.082031 -30.398438 L 3.082031 0 L 9.402344 0 L 9.402344 -11.996094 L 12.28125 -11.996094 L 19.820312 0 L 27.113281 0 Z M 14.875 -17.226562 L 9.402344 -17.226562 L 9.402344 -24.765625 L 14.875 -24.765625 C 15.96875 -24.765625 16.902344 -24.398438 17.628906 -23.667969 C 18.359375 -22.941406 18.726562 -22.046875 18.726562 -20.996094 C 18.726562 -19.902344 18.359375 -19.007812 17.628906 -18.28125 C 16.902344 -17.550781 15.96875 -17.226562 14.875 -17.226562 Z M 14.875 -17.226562 "/></g></g></g><path stroke-linecap="butt" transform="matrix(0.664872, 0, 0, 0.664872, 39.319697, 193.48569)" fill="none" stroke-linejoin="miter" d="M 123.374075 35.977695 C 126.111914 35.249171 128.379738 33.656994 130.148171 31.353919 C 131.904853 29.027343 132.827258 26.289504 132.827258 23.181528 C 132.827258 19.2804 131.487714 15.990293 128.926131 13.299455 C 126.294045 10.620368 123.06269 9.280824 119.226189 9.280824 L 100.143567 9.280824 L 100.143567 55.001565 L 109.655502 55.001565 L 109.655502 36.964727 L 113.985519 36.964727 L 125.324638 55.001565 L 136.293621 55.001565 Z M 117.886646 29.086095 L 109.655502 29.086095 L 109.655502 17.746975 L 117.886646 17.746975 C 119.537575 17.746975 120.93587 18.299243 122.034531 19.397904 C 123.121441 20.50244 123.673709 21.841984 123.673709 23.416535 C 123.673709 25.073339 123.121441 26.412883 122.034531 27.511544 C 120.93587 28.598454 119.537575 29.086095 117.886646 29.086095 Z M 117.886646 29.086095 " stroke="#38b6ff" stroke-width="2.286135" stroke-opacity="1" stroke-miterlimit="4"/></svg>