<svg width="172" height="26" viewBox="0 0 172 26" fill="none" xmlns="http://www.w3.org/2000/svg">
<path d="M170.29 0.719963H168.71C168.452 0.71466 168.198 0.782229 167.977 0.914906C167.756 1.04758 167.577 1.23998 167.46 1.46996C166.57 2.99996 165.62 4.60996 164.38 6.70996L162.38 9.98996L161.22 11.94C160.41 13.28 159.61 14.64 158.8 15.99C158.38 16.7 157.96 17.41 157.55 18.12L156.46 20L156.05 20.7L154.25 17.7C153.56 16.54 152.87 15.37 152.17 14.21L150.63 11.61L148.92 8.72996C147.46 6.27996 145.99 3.81996 144.51 1.36996C144.423 1.18707 144.29 1.03048 144.123 0.916252C143.956 0.802024 143.762 0.734279 143.56 0.719963H140.88V25.12H144.15V7.11996L145 8.59996C145.63 9.59996 146.26 10.7 146.88 11.75L148.88 15.18L150.6 18.11L152.23 20.85C152.81 21.85 153.38 22.77 153.95 23.73C154.52 24.73 154.82 25.12 156.02 25.12H156.42C156.621 25.1517 156.828 25.1091 157 25C157.232 24.9032 157.431 24.7397 157.57 24.53L158.19 23.53L158.58 22.85C159.04 22.09 159.49 21.33 159.95 20.58C160.66 19.39 161.37 18.21 162.07 17.02C162.69 16.02 163.3 14.95 163.91 13.91L165.6 11L167.94 7.07996V25.16H171.15V0.709961L170.29 0.719963Z" fill="#d92525"/>
<path d="M132.52 5.40006C131.426 4.03061 130.065 2.89769 128.52 2.07006C126.427 0.966321 124.114 0.344484 121.75 0.250061C121.07 0.250061 120.48 0.250061 119.92 0.250061C118.679 0.235647 117.44 0.342825 116.22 0.570061C114.791 0.824059 113.405 1.27502 112.1 1.91006C110.584 2.61124 109.239 3.6351 108.16 4.91006C107.543 5.66434 106.988 6.46692 106.5 7.31006C105.816 8.58786 105.407 9.99471 105.3 11.4401C105.127 12.9207 105.191 14.4196 105.49 15.8801C106.009 18.2531 107.275 20.3976 109.1 22.0001C110.126 22.9256 111.29 23.6848 112.55 24.2501C114.054 24.9313 115.658 25.3668 117.3 25.5401L117.83 25.6301L118.12 25.6901H122.22L122.36 25.5801L122.82 25.5201C123.18 25.5201 123.54 25.4401 123.9 25.3801C125.258 25.1733 126.579 24.769 127.82 24.1801C129.544 23.4347 131.061 22.2816 132.24 20.8201C132.837 20.0851 133.363 19.2949 133.81 18.4601C134.378 17.3104 134.746 16.0729 134.9 14.8001C135.1 13.4742 135.1 12.1259 134.9 10.8001C134.584 8.82538 133.765 6.9655 132.52 5.40006ZM131.73 13.1801C131.745 15.1849 131.063 17.1326 129.8 18.6901C129.022 19.6145 128.071 20.3787 127 20.9401C125.7 21.6583 124.274 22.12 122.8 22.3001C122.13 22.3801 121.45 22.4401 120.96 22.4901H120.55C118.589 22.5435 116.634 22.242 114.78 21.6001C113.6 21.1719 112.509 20.5313 111.56 19.7101C110.688 18.9644 109.977 18.0492 109.47 17.0201C108.99 16.0158 108.701 14.9304 108.62 13.8201C108.483 12.4249 108.647 11.0165 109.1 9.69006C109.633 8.19582 110.559 6.87279 111.78 5.86006C113.284 4.64639 115.087 3.86202 117 3.59006C117.661 3.47447 118.33 3.41094 119 3.40006H119.49H120.28H121.13C122.876 3.45313 124.597 3.83655 126.2 4.53006C127.409 5.05029 128.498 5.81263 129.4 6.77006C130.459 7.87474 131.172 9.26523 131.45 10.7701C131.613 11.5638 131.707 12.3702 131.73 13.1801Z" fill="#d92525"/>
<path d="M69.0004 5.83003C67.9374 4.36532 66.5736 3.14472 65.0004 2.25003C62.8539 1.04927 60.4573 0.36454 58.0004 0.250027C57.3604 0.250027 56.6804 0.180027 56.0004 0.180027C55.1591 0.172233 54.3188 0.242533 53.4904 0.390026H53.2104C52.2804 0.570026 51.3104 0.750025 50.3704 1.01002C48.5422 1.52112 46.8556 2.44481 45.4404 3.71003C44.147 4.8317 43.1218 6.22938 42.4404 7.80003C41.7809 9.3565 41.4409 11.0296 41.4404 12.72C41.4462 13.2883 41.4829 13.8558 41.5504 14.42V14.79C41.6626 16.0344 42.0015 17.2477 42.5504 18.37C43.3238 19.9335 44.4419 21.3012 45.8204 22.37C48.042 24.0751 50.7015 25.1153 53.4904 25.37L54.0204 25.46L54.3104 25.52H58.3104L58.4904 25.41H58.9304L60.1104 25.26C61.3474 25.0457 62.5531 24.6796 63.7004 24.17C65.3434 23.4435 66.8203 22.3885 68.0404 21.07C68.8599 20.1808 69.5348 19.1685 70.0404 18.07C71.0417 15.8536 71.3887 13.3971 71.0404 10.99C70.8152 9.1233 70.1126 7.34614 69.0004 5.83003ZM67.8604 13.83C67.8148 14.824 67.5842 15.8007 67.1804 16.71C66.7152 17.7778 66.0343 18.7379 65.1804 19.53C64.2225 20.434 63.0938 21.1377 61.8604 21.6C60.783 22.045 59.6425 22.3184 58.4804 22.41H57.9704C57.2504 22.47 56.5704 22.52 55.9004 22.52H55.4104C53.4194 22.4909 51.4606 22.0123 49.6804 21.12C47.8922 20.236 46.4445 18.7882 45.5604 17C45.1526 16.1663 44.9017 15.2646 44.8204 14.34C44.8204 14.01 44.8204 13.68 44.7504 13.34V12.91C44.7115 11.4762 45.0348 10.0558 45.6904 8.78003C46.0638 8.08654 46.5025 7.43024 47.0004 6.82003C47.8556 5.80111 48.9427 5.00211 50.1704 4.49003C51.1516 4.03125 52.1969 3.72441 53.2704 3.58003C54.0404 3.49003 54.8804 3.42003 55.9704 3.37003H56.7704C58.4789 3.36328 60.1739 3.67178 61.7704 4.28003C62.9622 4.73375 64.0555 5.41278 64.9904 6.28003C65.732 6.95772 66.354 7.75557 66.8304 8.64003C67.2725 9.43774 67.5545 10.3142 67.6604 11.22C67.7658 12.0727 67.8193 12.9309 67.8204 13.79L67.8604 13.83Z" fill="#d92525"/>
<path d="M21.2902 13.1C20.9033 12.803 20.4879 12.545 20.0502 12.33C20.501 12.0078 20.9107 11.6317 21.2702 11.21C21.8292 10.6378 22.256 9.9499 22.5203 9.19485C22.7847 8.4398 22.8802 7.63595 22.8002 6.83998C22.7172 6.1497 22.5318 5.47564 22.2502 4.83998C21.6293 3.54554 20.5649 2.51661 19.2502 1.93998C17.6137 1.14624 15.819 0.732603 14.0002 0.72998H0.260155V3.89998H1.14016H13.4102C14.7798 3.86129 16.1424 4.10997 17.4102 4.62998C17.8846 4.79612 18.3131 5.07204 18.6607 5.43525C19.0082 5.79845 19.2651 6.23866 19.4102 6.71998C19.5966 7.34005 19.543 8.00755 19.2602 8.58998C18.9059 9.20516 18.3622 9.68925 17.7102 9.96998C16.4175 10.625 14.9893 10.9675 13.5402 10.97C12.5402 10.97 11.4702 10.97 10.1602 10.97H0.160156V14.15H1.04016H12.0002C13.1502 14.15 14.3802 14.23 15.6702 14.36C16.9371 14.4904 18.1527 14.93 19.2102 15.64C19.7964 16.0457 20.2191 16.6469 20.4023 17.3359C20.5856 18.0249 20.5174 18.7566 20.2102 19.4C19.6945 20.3172 18.846 21.001 17.8402 21.31C16.3845 21.8754 14.8313 22.1473 13.2702 22.11H0.270157V25.29H1.15016H12.4902C13.6677 25.26 14.8411 25.1397 16.0002 24.93C17.5117 24.741 18.9759 24.2767 20.3202 23.56C21.2389 23.0752 22.0382 22.392 22.6602 21.56C23.5139 20.3653 23.9048 18.9012 23.7602 17.44C23.6842 16.5816 23.4243 15.7497 22.9981 15.0008C22.5719 14.2519 21.9894 13.6036 21.2902 13.1Z" fill="#d92525"/>
<path d="M99.2896 7.88999C98.7793 6.53289 97.9731 5.30651 96.9296 4.29999C95.8571 3.28322 94.6016 2.47901 93.2296 1.92999C91.3855 1.18127 89.4195 0.777898 87.4296 0.73999C86.2396 0.73999 84.9496 0.73999 83.3796 0.73999H76.3096V3.87999H86.1196C87.2559 3.86646 88.3909 3.96021 89.5096 4.15999C90.8311 4.38948 92.0989 4.86069 93.2496 5.54999C94.4039 6.24102 95.3371 7.24707 95.9396 8.44999C96.4113 9.38678 96.6997 10.405 96.7896 11.45C96.9282 12.6597 96.8844 13.8833 96.6596 15.08C96.2512 16.8786 95.2027 18.4673 93.7096 19.55C92.6393 20.3391 91.4373 20.9316 90.1596 21.3C88.7333 21.7207 87.2565 21.9461 85.7696 21.97H82.4296H76.3196V25.11H85.1396C86.3818 25.1079 87.6221 25.011 88.8496 24.82C90.5145 24.5802 92.1331 24.0879 93.6496 23.36C95.1832 22.6594 96.5476 21.6361 97.6496 20.36C98.3303 19.5631 98.8896 18.6702 99.3096 17.71C100.118 15.6448 100.393 13.4095 100.11 11.21C99.9908 10.0708 99.7148 8.95351 99.2896 7.88999Z" fill="#d92525"/>
<path d="M31.8895 0.75H31.0195V1.62V24.26V25.12H31.8895H33.4195H34.2795V24.26V1.62V0.75H33.4195H31.8895Z" fill="#d92525"/>
</svg>
