<svg width="213" height="44" viewBox="0 0 213 44" fill="none" xmlns="http://www.w3.org/2000/svg"><path d="M2.457 21V2.1H6.615V21H2.457ZM20.0613 21.27C16.9653 21.27 14.2923 20.262 12.0423 18.246L14.4993 15.303C16.3533 16.833 18.2343 17.598 20.1423 17.598C20.9883 17.598 21.6543 17.436 22.1403 17.112C22.6263 16.788 22.8693 16.338 22.8693 15.762C22.8693 15.222 22.6173 14.79 22.1133 14.466C21.6093 14.124 20.5923 13.755 19.0623 13.359C17.9823 13.089 17.1093 12.828 16.4433 12.576C15.7773 12.306 15.1383 11.955 14.5263 11.523C13.9323 11.091 13.4913 10.551 13.2033 9.903C12.9333 9.237 12.7983 8.445 12.7983 7.527C12.7983 5.817 13.4103 4.44 14.6343 3.396C15.8763 2.352 17.4693 1.83 19.4133 1.83C22.0953 1.83 24.4353 2.631 26.4333 4.233L24.2733 7.365C22.4913 6.123 20.8533 5.502 19.3593 5.502C18.5853 5.502 17.9823 5.664 17.5503 5.988C17.1363 6.294 16.9293 6.699 16.9293 7.203C16.9293 7.815 17.1903 8.274 17.7123 8.58C18.2343 8.886 19.3323 9.255 21.0063 9.687C23.0583 10.227 24.5703 10.92 25.5423 11.766C26.5143 12.612 27.0003 13.827 27.0003 15.411C27.0003 17.247 26.3613 18.687 25.0833 19.731C23.8233 20.757 22.1493 21.27 20.0613 21.27ZM32.6088 21V2.1H36.7668V17.22H46.1898V21H32.6088ZM49.7056 21L57.8056 1.965H61.6396L69.7396 21H65.3926L63.6646 16.761H55.6726L53.9446 21H49.7056ZM57.1576 13.089H62.1796L59.6686 6.96L57.1576 13.089ZM74.6567 21V2.1H78.4907L87.3467 13.737V2.1H91.4507V21H87.9137L78.7607 8.985V21H74.6567ZM97.9877 21V2.1H105.359C108.311 2.1 110.723 3 112.595 4.8C114.467 6.582 115.403 8.832 115.403 11.55C115.403 14.25 114.458 16.5 112.568 18.3C110.696 20.1 108.293 21 105.359 21H97.9877ZM102.146 17.247H105.359C107.069 17.247 108.446 16.725 109.49 15.681C110.534 14.619 111.056 13.242 111.056 11.55C111.056 9.876 110.525 8.508 109.463 7.446C108.419 6.384 107.051 5.853 105.359 5.853H102.146V17.247ZM137.926 21.27C134.83 21.27 132.157 20.262 129.907 18.246L132.364 15.303C134.218 16.833 136.099 17.598 138.007 17.598C138.853 17.598 139.519 17.436 140.005 17.112C140.491 16.788 140.734 16.338 140.734 15.762C140.734 15.222 140.482 14.79 139.978 14.466C139.474 14.124 138.457 13.755 136.927 13.359C135.847 13.089 134.974 12.828 134.308 12.576C133.642 12.306 133.003 11.955 132.391 11.523C131.797 11.091 131.356 10.551 131.068 9.903C130.798 9.237 130.663 8.445 130.663 7.527C130.663 5.817 131.275 4.44 132.499 3.396C133.741 2.352 135.334 1.83 137.278 1.83C139.96 1.83 142.3 2.631 144.298 4.233L142.138 7.365C140.356 6.123 138.718 5.502 137.224 5.502C136.45 5.502 135.847 5.664 135.415 5.988C135.001 6.294 134.794 6.699 134.794 7.203C134.794 7.815 135.055 8.274 135.577 8.58C136.099 8.886 137.197 9.255 138.871 9.687C140.923 10.227 142.435 10.92 143.407 11.766C144.379 12.612 144.865 13.827 144.865 15.411C144.865 17.247 144.226 18.687 142.948 19.731C141.688 20.757 140.014 21.27 137.926 21.27ZM166.835 18.489C164.927 20.379 162.533 21.324 159.653 21.324C156.773 21.324 154.379 20.379 152.471 18.489C150.581 16.599 149.636 14.286 149.636 11.55C149.636 8.832 150.59 6.528 152.498 4.638C154.424 2.73 156.827 1.776 159.707 1.776C162.587 1.776 164.972 2.721 166.862 4.611C168.77 6.501 169.724 8.814 169.724 11.55C169.724 14.268 168.761 16.581 166.835 18.489ZM155.603 15.762C156.683 16.914 158.051 17.49 159.707 17.49C161.363 17.49 162.722 16.923 163.784 15.789C164.846 14.637 165.377 13.224 165.377 11.55C165.377 9.894 164.837 8.49 163.757 7.338C162.677 6.186 161.309 5.61 159.653 5.61C157.997 5.61 156.638 6.186 155.576 7.338C154.514 8.472 153.983 9.876 153.983 11.55C153.983 13.206 154.523 14.61 155.603 15.762ZM183.297 21.297C180.723 21.297 178.716 20.586 177.276 19.164C175.836 17.724 175.116 15.636 175.116 12.9V2.1H179.274V12.792C179.274 14.304 179.625 15.465 180.327 16.275C181.047 17.067 182.055 17.463 183.351 17.463C184.647 17.463 185.646 17.076 186.348 16.302C187.068 15.528 187.428 14.403 187.428 12.927V2.1H191.586V12.765C191.586 15.573 190.848 17.697 189.372 19.137C187.914 20.577 185.889 21.297 183.297 21.297ZM197.821 21V2.1H201.979V17.22H211.402V21H197.821Z" fill="black"></path><path d="M77.47 39.1C76.5367 39.1 75.8167 38.6867 75.31 37.86L75.88 37.37C76.1067 37.71 76.34 37.9633 76.58 38.13C76.8267 38.29 77.1267 38.37 77.48 38.37C77.8867 38.37 78.2167 38.2267 78.47 37.94C78.7233 37.6467 78.85 37.23 78.85 36.69V32H79.65V36.68C79.65 37.48 79.4367 38.0933 79.01 38.52C78.61 38.9067 78.0967 39.1 77.47 39.1ZM83.5173 39V32H88.5773V32.72H84.3073V35.11H88.1273V35.83H84.3073V38.28H88.6273V39H83.5173ZM94.1766 39.05L91.6766 32H92.5366L94.5366 37.83L96.4566 31.98H97.1066L99.0266 37.83L101.027 32H101.857L99.3566 39.05H98.6866L96.7666 33.37L94.8366 39.05H94.1766ZM105.291 39V32H110.351V32.72H106.081V35.11H109.901V35.83H106.081V38.28H110.401V39H105.291ZM113.99 39V32H114.78V38.27H118.72V39H113.99ZM122.181 39V32H125.191C126.051 32 126.715 32.2333 127.181 32.7C127.541 33.06 127.721 33.5267 127.721 34.1C127.721 34.66 127.548 35.1133 127.201 35.46C126.855 35.8067 126.395 36.0333 125.821 36.14L127.971 39H127.001L124.971 36.28H122.971V39H122.181ZM122.971 35.57H125.121C125.655 35.57 126.088 35.44 126.421 35.18C126.755 34.92 126.921 34.5633 126.921 34.11C126.921 33.6767 126.761 33.34 126.441 33.1C126.128 32.8533 125.691 32.73 125.131 32.73H122.971V35.57ZM133.344 39V36.23L130.434 32H131.394L133.754 35.5L136.134 32H137.054L134.144 36.22V39H133.344Z" fill="black"></path></svg>