<?xml version="1.0" encoding="UTF-8"?> <svg xmlns="http://www.w3.org/2000/svg" width="126" height="52" viewBox="0 0 126 52" fill="none"> <g clip-path="url(#clip0_196_6964)"> <path d="M0.202179 21.7393C0.235876 21.6722 0.303271 21.6051 0.336968 21.538C0.909818 20.6658 1.51636 19.76 2.08921 18.8877C2.19031 18.72 2.35879 18.5858 2.52728 18.4851C2.72946 18.3845 2.96534 18.3509 3.20122 18.3845H3.23491C3.30231 18.418 3.3697 18.3845 3.4034 18.3174C3.50449 18.1161 3.63928 17.9483 3.74037 17.7471C4.04364 17.1432 4.34692 16.5393 4.65019 15.9354C4.95346 15.3316 5.22304 14.7613 5.49262 14.1574C5.76219 13.6206 5.99807 13.0503 6.26765 12.5135C6.57092 11.8761 6.8405 11.2387 7.14377 10.6348C7.34595 10.2322 7.51444 9.79609 7.71662 9.39351C7.9525 8.89028 8.18838 8.38706 8.42426 7.88383C8.62644 7.48125 8.79493 7.07867 8.99711 6.67609C9.19929 6.23996 9.40147 5.83738 9.56996 5.40125C9.67105 5.16641 9.80584 4.89803 9.90693 4.66319C9.97432 4.52899 10.0754 4.42835 10.1765 4.3277C10.3787 4.15996 10.6146 4.05932 10.8504 3.95867C11.4907 3.69029 12.1646 3.52254 12.8386 3.32125C13.4114 3.15351 13.9843 2.98577 14.5234 2.75093C14.8604 2.61673 15.1637 2.44899 15.4332 2.21415C15.6691 2.01286 15.8376 1.77803 15.9387 1.47609C15.9724 1.40899 15.9387 1.3419 15.9387 1.2748C15.905 1.2077 15.8713 1.14061 15.8713 1.07351C15.8039 0.83867 15.8713 0.603833 16.0735 0.469639C16.2083 0.368994 16.3768 0.301898 16.5452 0.268349C16.7811 0.234801 16.9833 0.167703 17.2192 0.167703C17.2529 0.167703 17.2866 0.167704 17.3203 0.134155C17.7246 0.134155 18.1627 0.134155 18.5671 0.134155C18.6345 0.134155 18.7019 0.167703 18.7693 0.167703C18.9714 0.167703 19.2073 0.201253 19.4095 0.268349C19.8139 0.402543 20.016 0.771574 19.915 1.17415C19.8813 1.3419 19.915 1.50964 19.9823 1.64383C20.1845 1.94577 20.4204 2.18061 20.7237 2.3819C21.0607 2.61674 21.465 2.78448 21.8357 2.91867C22.4422 3.15351 23.0488 3.32125 23.689 3.48899C24.1945 3.65674 24.6999 3.82448 25.2054 4.05932C25.3402 4.12641 25.4413 4.19351 25.5761 4.29416C25.7108 4.3948 25.8119 4.49545 25.8793 4.62964C26.3174 5.33416 26.7218 6.03867 27.1598 6.74319C27.5642 7.4477 27.9685 8.11867 28.3729 8.82319C28.6762 9.32642 28.9458 9.82964 29.2153 10.3329C29.4512 10.769 29.6871 11.1716 29.923 11.6077C30.1589 12.0438 30.3947 12.4464 30.6306 12.8825C30.9676 13.4864 31.3046 14.0903 31.6078 14.6942C32.0796 15.5329 32.484 16.4051 32.922 17.2774C33.0568 17.5458 33.1916 17.8477 33.2927 18.1161C33.2927 18.1496 33.3264 18.1832 33.3264 18.2167C33.3601 18.3174 33.4275 18.3509 33.5286 18.3509C33.8992 18.3509 34.2025 18.5187 34.4047 18.8542C34.8427 19.5251 35.2808 20.1625 35.7189 20.8335C35.8874 21.0684 36.0558 21.3032 36.1906 21.5716C36.2243 21.6387 36.258 21.7058 36.2917 21.7729C36.2917 21.9742 36.2917 22.1754 36.2917 22.3767C36.2917 22.4774 36.258 22.5445 36.258 22.6451C36.1906 22.9471 36.0558 23.2154 35.9211 23.4838C35.7526 23.7858 35.5167 24.0877 35.2808 24.3561C34.7417 24.96 34.1014 25.4632 33.4275 25.9329C32.8883 26.3019 32.3492 26.6374 31.7426 26.9393C31.035 27.3084 30.2936 27.6438 29.5523 27.9122C29.0805 28.08 28.5751 28.2477 28.0696 28.3484C27.8001 28.4154 27.4968 28.449 27.1935 28.449C26.9913 28.449 26.7555 28.4154 26.5533 28.3148C26.4522 28.2477 26.3848 28.1806 26.3174 28.08C26.2163 27.8787 26.1152 27.6438 26.0141 27.4425C25.913 27.1742 25.7782 26.9393 25.6771 26.6709C25.6771 26.6709 25.6771 26.6709 25.6434 26.6374C25.6434 26.6709 25.6434 26.738 25.6434 26.7716C25.6434 29.3213 25.6434 31.9045 25.6434 34.4542C25.6434 38.0103 25.6434 41.5329 25.6434 45.089C25.5761 46.5316 25.6435 47.9742 25.6098 49.4167C25.6098 49.9871 25.6098 50.5574 25.5761 51.1277C25.5761 51.2284 25.5761 51.329 25.5424 51.4296C25.5424 51.5303 25.475 51.6309 25.3739 51.6645C25.2728 51.7316 25.1717 51.7987 25.0706 51.8322C24.8347 51.9329 24.5651 51.9664 24.3293 52C23.9923 52.0335 23.6553 52.0671 23.2847 52.0671C22.9814 52.0671 22.7118 52.0671 22.4085 52.0671C22.139 52.0671 21.8357 52.0335 21.5661 52.0335C21.2965 52 21.0607 52 20.7911 51.9664C20.5552 51.9329 20.3193 51.9329 20.0834 51.8993C19.7128 51.8658 19.3758 51.7987 19.0051 51.7651C18.8029 51.7316 18.6345 51.7316 18.4323 51.698C17.9605 51.6645 17.4888 51.6309 17.017 51.6645C16.3094 51.698 15.6017 51.8322 14.8941 51.9329C14.6245 51.9664 14.3549 51.9664 14.0854 52C13.8158 52.0335 13.5125 52.0335 13.2429 52.0671C13.1418 52.0671 13.0408 52.1006 12.9397 52.1006C12.5016 52.1006 12.0972 52.1006 11.6592 52.1006C11.5244 52.0671 11.4233 52.0671 11.2885 52.0335C11.2885 52.0335 11.2885 52 11.2548 51.9664C11.2548 51.698 11.2211 51.4632 11.2211 51.1948C11.2211 50.6916 11.1874 50.1884 11.1874 49.6851C11.1874 49.3832 11.1874 49.0477 11.1537 48.7458C11.1537 48.4438 11.12 48.1419 11.0863 47.84V47.8064C11.0863 47.4374 11.0526 47.0684 11.0526 46.6993C11.0526 46.3974 11.0189 46.0955 11.0189 45.7935V45.76C11.0189 45.3909 10.9852 45.0554 10.9852 44.6864C10.9852 44.3509 10.9515 44.0154 10.9178 43.68V43.6464C10.9178 43.3109 10.8841 43.009 10.8841 42.6735C10.8841 42.3045 10.8504 41.9019 10.8167 41.5329V41.4993C10.8167 41.0967 10.7831 40.6942 10.7831 40.2916C10.7831 39.8555 10.7494 39.4529 10.7494 39.0167C10.7494 38.6142 10.7157 38.2116 10.7157 37.809C10.7157 37.3729 10.682 36.9032 10.682 36.4671C10.682 36.0645 10.682 35.6619 10.6483 35.2593C10.5809 33.5484 10.6146 31.8374 10.6146 30.1264C10.6146 29.7238 10.6146 29.2877 10.6483 28.8851C10.6483 28.4825 10.682 28.0464 10.7157 27.6438C10.7494 27.2748 10.7494 26.9058 10.7831 26.5367C10.7831 26.4696 10.7831 26.4025 10.7831 26.3354C10.7494 26.4025 10.7157 26.4696 10.682 26.5367C10.4461 27.04 10.2439 27.5432 10.008 28.0464C9.90693 28.2477 9.77214 28.3484 9.56996 28.4154C9.36778 28.4825 9.1319 28.4825 8.92972 28.4825C8.18838 28.4154 7.44704 28.2142 6.73941 27.9458C6.03177 27.6774 5.35783 27.3755 4.68389 27.04C3.77407 26.5703 2.89794 26 2.05552 25.3625C1.71855 25.0942 1.41527 24.8258 1.112 24.4903C0.808726 24.1548 0.53915 23.8193 0.336968 23.4167C0.20218 23.1819 0.101088 22.9135 0.033694 22.6787C0.033694 22.6116 -1.98558e-06 22.578 -0.033699 22.5445C0.20218 22.1754 0.202179 21.9742 0.202179 21.7393ZM21.8694 17.6464C21.8694 17.68 21.8694 17.7135 21.8694 17.7471C21.9031 17.9148 21.9031 18.0825 21.9368 18.2838C21.9705 18.72 22.0379 19.1561 22.0379 19.5922C22.0379 20.2296 22.0716 20.8671 22.0042 21.5045C21.9705 21.84 21.9368 22.1754 21.9031 22.5109C21.8357 23.1484 21.6672 23.7858 21.465 24.4232C21.1954 25.2954 20.8585 26.1006 20.4878 26.9393C20.4541 27.0064 20.4204 27.1071 20.4204 27.1742C20.4204 28.1471 20.4204 29.12 20.3867 30.0929C20.3867 30.3613 20.353 30.6296 20.353 30.898C20.353 31.2671 20.3193 31.6696 20.3193 32.0387C20.3193 32.4748 20.2856 32.9109 20.2856 33.3471V33.3806C20.2519 33.6825 20.2519 33.9845 20.2182 34.32C20.1845 34.7225 20.1845 35.1251 20.1508 35.5277C20.1171 35.9303 20.1171 36.2993 20.0834 36.7019C20.0834 36.9703 20.0497 37.2387 20.0497 37.5406C20.0497 37.5742 20.0497 37.5742 20.0497 37.6077C20.0497 37.8425 20.016 38.0438 20.016 38.2787C20.016 38.5135 19.9823 38.7484 19.9823 38.9832C19.9823 39.1509 19.9486 39.2851 19.9486 39.4529C19.915 39.7884 19.8813 40.1238 19.8813 40.4929C19.8476 40.8284 19.8476 41.1638 19.8139 41.4658C19.8139 41.6 19.7802 41.7342 19.7802 41.8684C19.7465 42.1703 19.7128 42.4387 19.7128 42.7406C19.6791 43.009 19.6791 43.2438 19.6454 43.5122C19.6117 43.8477 19.578 44.1832 19.5443 44.5187C19.5106 44.8877 19.4769 45.2903 19.4095 45.6593C19.3421 46.129 19.2747 46.5651 19.2073 47.0348C19.1062 47.7393 18.9714 48.4774 18.803 49.1819C18.7019 49.5174 18.6008 49.8193 18.4323 50.1213C18.2975 50.3561 18.129 50.4903 17.8257 50.4903C17.1855 50.4903 16.5452 50.4903 15.905 50.4903C15.568 50.4903 15.2648 50.5238 14.9278 50.5574C14.4897 50.6245 14.0517 50.6916 13.6136 50.7587C13.2092 50.8258 12.8386 50.9264 12.4679 51.0606C12.4342 51.0606 12.4005 51.0942 12.3668 51.0942C12.2657 51.0942 12.1983 51.0606 12.1646 50.9935C12.1646 50.96 12.1309 50.9264 12.1309 50.8929C12.0635 50.5238 12.0635 50.1548 12.0635 49.8193C12.0635 49.5845 12.0635 49.3496 12.0972 49.1148C12.0972 48.8464 12.1309 48.578 12.1646 48.3096C12.232 47.8735 12.2657 47.4038 12.3668 46.9677C12.5353 45.9613 12.8386 44.9548 13.1418 43.9484C13.4114 43.1096 13.7147 42.3045 14.0517 41.4993C14.3549 40.7613 14.6919 40.0232 14.9952 39.2851C15.2985 38.6142 15.6017 37.9767 15.9387 37.3058C16.1746 36.8361 16.4105 36.3664 16.6463 35.8632C17.354 34.4206 18.0953 32.978 18.803 31.5354C19.1399 30.8645 19.4095 30.1935 19.6791 29.5225C19.8813 28.9858 20.0834 28.4154 20.2182 27.8451C20.2519 27.7109 20.2856 27.5767 20.2856 27.4425C20.2519 27.4425 20.2519 27.4425 20.2519 27.4761C20.0834 27.8116 19.9486 28.1471 19.7802 28.4825C19.4432 29.1871 19.0725 29.858 18.7356 30.5625C18.6345 30.7638 18.5334 30.9316 18.4323 31.1329C18.2301 31.5019 18.0279 31.8709 17.8257 32.2064C17.6236 32.5754 17.4214 32.9445 17.2192 33.3135C16.9496 33.7832 16.7137 34.2193 16.4442 34.689C16.242 35.058 16.0398 35.4271 15.8376 35.7625C15.5343 36.2993 15.2311 36.8361 14.9615 37.3729C14.6919 37.8761 14.4223 38.4129 14.1865 38.9496C13.8495 39.5871 13.5799 40.258 13.2766 40.8954C12.9734 41.6 12.7038 42.2709 12.4679 43.009C12.1983 43.7471 11.9624 44.5187 11.794 45.2903C11.6929 45.6929 11.6255 46.129 11.5581 46.5316C11.4907 46.8671 11.457 47.2025 11.4233 47.538C11.3896 47.7729 11.3559 48.0413 11.3559 48.2761C11.3559 48.8129 11.3559 49.3161 11.3896 49.8529C11.3896 50.4903 11.4233 51.1613 11.4233 51.7987V51.8322C11.4233 51.8993 11.457 51.9329 11.5244 51.9329C11.6255 51.9329 11.6929 51.9664 11.794 51.9664C12.0972 52 12.4005 52 12.6701 51.9664C13.0408 51.9329 13.4114 51.8993 13.7821 51.8658C13.9169 51.8658 14.0517 51.8322 14.1528 51.8322C14.3212 51.8322 14.4897 51.8322 14.6582 51.7987C15.1974 51.7316 15.7365 51.6309 16.3094 51.5638C16.6463 51.5303 16.9833 51.4967 17.3203 51.4632C17.6236 51.4632 17.9268 51.4296 18.2638 51.4967C18.6008 51.5303 18.9377 51.5638 19.2747 51.5974C19.9486 51.6645 20.5889 51.7651 21.2628 51.7987C21.4313 51.7987 21.5998 51.8322 21.7346 51.8322C22.1053 51.8658 22.5096 51.8658 22.8803 51.8993C23.1162 51.8993 23.3521 51.8658 23.5879 51.8658C23.8912 51.8658 24.1608 51.8322 24.4304 51.7987C24.6999 51.7651 24.9358 51.698 25.1717 51.5974C25.3065 51.5303 25.3739 51.4296 25.3739 51.2284C25.3739 49.8529 25.3739 48.5109 25.4076 47.1355C25.4076 44.7871 25.4413 42.4387 25.4076 40.0903C25.3739 37.9767 25.4076 35.8296 25.4076 33.7161C25.4076 31.6025 25.4413 29.4554 25.3739 27.3419C25.3739 26.9058 25.3739 26.5032 25.3739 26.0671C25.3739 26 25.3739 25.9329 25.3402 25.8658C25.2054 25.5303 25.0369 25.1948 24.8684 24.8593C24.7673 24.658 24.7336 24.4232 24.801 24.1884C24.8347 23.9871 24.9695 23.8193 25.1043 23.6851C25.1717 23.6516 25.1717 23.5845 25.1717 23.5174C25.138 23.3832 25.138 23.249 25.1043 23.1148C25.0032 22.5445 24.9021 21.9406 24.7336 21.3703C24.5314 20.6993 24.3293 20.0619 23.9923 19.458C23.7901 19.089 23.5542 18.72 23.251 18.418C23.0151 18.1832 22.7455 18.0154 22.4422 17.8813C22.3748 17.68 22.139 17.68 21.8694 17.6464ZM11.3896 46.7329C11.4233 46.7329 11.4233 46.7329 11.3896 46.7329C11.4233 46.4645 11.457 46.2296 11.5244 45.9613C11.6255 45.3238 11.7603 44.6529 11.9624 44.049C12.1983 43.2438 12.4679 42.4387 12.7712 41.6335C13.2429 40.4593 13.7484 39.2851 14.3212 38.1445C14.6582 37.44 15.0289 36.769 15.3995 36.0645C15.6354 35.5948 15.905 35.1251 16.1746 34.6554C16.3094 34.4206 16.4442 34.1522 16.5789 33.9174C16.7811 33.5148 17.017 33.1122 17.2192 32.7432C17.4214 32.3406 17.6573 31.938 17.8594 31.5354C18.1627 30.9987 18.466 30.4619 18.7356 29.9251C19.1062 29.1871 19.4769 28.449 19.8139 27.7445C19.9823 27.4425 20.1171 27.1071 20.2519 26.8051C20.4541 26.369 20.6226 25.8993 20.7911 25.4632C20.9596 25.0271 21.128 24.5574 21.2628 24.1213C21.3639 23.7522 21.465 23.3832 21.5324 23.0142C21.5998 22.7458 21.6335 22.4438 21.6672 22.1754C21.7009 21.84 21.7346 21.4709 21.7346 21.1354C21.7346 20.5316 21.7683 19.9277 21.7009 19.3238C21.6672 19.089 21.6672 18.8877 21.6672 18.6529C21.6335 18.3845 21.5998 18.1161 21.5998 17.8477C21.5998 17.7135 21.5661 17.68 21.4313 17.68C21.128 17.6464 20.8248 17.6464 20.4878 17.6129C20.1171 17.6129 19.7465 17.5793 19.3758 17.5793C18.6008 17.5793 17.8594 17.5458 17.0844 17.6129C16.6126 17.6464 16.1746 17.6129 15.7028 17.6464C15.0963 17.68 14.456 17.68 13.8495 17.68C13.6136 17.68 13.4451 17.7806 13.3103 17.9819C13.2429 18.0825 13.1755 18.1496 13.0745 18.2167C12.9734 18.2838 12.906 18.3509 12.8386 18.4516C12.8049 18.5187 12.7712 18.5858 12.7038 18.6864C12.4342 19.2232 12.232 19.7935 12.0972 20.3638C11.9961 20.8335 11.8951 21.3032 11.794 21.7729C11.7266 22.1083 11.6929 22.4438 11.6255 22.7793C11.5918 23.0477 11.5581 23.3496 11.5244 23.618C11.5244 23.7187 11.5244 23.8193 11.5918 23.92C11.794 24.2554 11.7603 24.5574 11.5918 24.8929C11.457 25.1277 11.3559 25.3625 11.3222 25.6645C11.3222 26 11.2548 26.3354 11.2548 26.6709C11.2211 27.0064 11.2211 27.3755 11.1874 27.7109C11.1537 28.1806 11.1537 28.6503 11.12 29.12C11.12 29.4219 11.0863 29.7238 11.0863 30.0258C11.0863 30.529 11.0526 31.0322 11.0526 31.5354C11.0526 32.8774 11.0189 34.2529 11.0863 35.5948C11.12 36.1651 11.0863 36.7354 11.12 37.3058C11.1537 38.0103 11.12 38.6813 11.1537 39.3858C11.1874 39.8219 11.1537 40.2245 11.1874 40.6606C11.2211 41.0296 11.2211 41.3651 11.2211 41.7342C11.2211 42.0361 11.2548 42.338 11.2548 42.64C11.2548 42.9755 11.2885 43.2774 11.2885 43.6129C11.2885 43.9148 11.3222 44.2167 11.3222 44.5522C11.3222 45.0219 11.3559 45.4916 11.3559 45.9613C11.3896 46.1625 11.3896 46.4309 11.3896 46.7329ZM16.0398 1.54319C16.0061 1.64383 15.9724 1.71093 15.9387 1.77803C15.7702 2.18061 15.4669 2.44899 15.0963 2.65028C14.8267 2.81803 14.5234 2.98577 14.2202 3.08641C13.7484 3.2877 13.2429 3.4219 12.7375 3.58964C12.2657 3.75738 11.7603 3.89157 11.2885 4.05932C10.9852 4.15996 10.7157 4.29416 10.4461 4.4619C10.3787 4.49545 10.3113 4.56254 10.2439 4.62964C10.1765 4.69674 10.1765 4.79738 10.1428 4.86448C10.1428 4.89803 10.1428 4.93158 10.1428 4.96512C10.1428 5.09932 10.1765 5.23351 10.1765 5.3677C10.1765 5.53545 10.2102 5.73674 10.2102 5.90448C10.2102 6.07222 10.2439 6.20641 10.2439 6.37416C10.2776 6.74319 10.345 7.07867 10.3787 7.4477C10.4461 7.91738 10.5135 8.38706 10.5809 8.82319C10.682 9.35996 10.7494 9.89674 10.8504 10.4335C10.9852 11.2051 11.1537 11.9767 11.3222 12.7484C11.4233 13.218 11.5581 13.7213 11.6929 14.1909C11.8614 14.7613 12.0635 15.3316 12.3668 15.8684C12.4342 16.0025 12.4342 16.0025 12.6027 16.0025C12.9397 15.969 13.2092 16.1032 13.3777 16.4051C13.4114 16.4387 13.4114 16.4722 13.4114 16.4722C13.5799 16.4722 13.7484 16.4387 13.9169 16.4387C14.8604 16.4387 15.8039 16.4051 16.7811 16.4722C17.1855 16.5058 17.6236 16.5058 18.0279 16.5058C18.4997 16.5058 19.0051 16.5058 19.4769 16.5393C19.8139 16.5729 20.1171 16.5393 20.4541 16.5393C20.5215 16.5393 20.5552 16.5393 20.6226 16.5393C20.8248 16.5393 21.0607 16.5393 21.2628 16.5729C21.2965 16.5729 21.2965 16.5729 21.3302 16.5729C21.3639 16.5729 21.3976 16.5393 21.3976 16.5058C21.3976 16.4722 21.3976 16.4387 21.3976 16.4051C21.3302 16.1032 21.2965 15.8013 21.2291 15.4993C21.128 15.0632 21.0607 14.5935 20.9596 14.1574C20.7911 13.4529 20.6226 12.7484 20.4204 12.0438C20.2519 11.44 20.0834 10.8696 19.8813 10.2993C19.6791 9.69545 19.4769 9.05803 19.241 8.45415C19.0725 7.95093 18.8703 7.41416 18.6682 6.91093C18.4323 6.34061 18.2638 5.77028 17.9268 5.23351C17.6909 4.83093 17.4888 4.42835 17.2866 4.02577C16.8822 3.18706 16.4779 2.3819 16.0398 1.54319C16.0735 1.57674 16.0735 1.54319 16.0398 1.54319ZM25.6098 23.3496C25.6771 23.3161 25.7108 23.2825 25.7445 23.2825C26.25 22.9471 26.7892 22.6116 27.2946 22.2761C27.9349 21.8735 28.5751 21.4374 29.2153 21.0348C29.9567 20.5651 30.6643 20.0954 31.4056 19.6258C31.7763 19.3909 32.1807 19.1225 32.5513 18.8877C32.7872 18.7535 33.0231 18.5522 33.259 18.4516C33.3264 18.418 33.3264 18.3845 33.3264 18.3509C33.3264 18.3174 33.2927 18.3174 33.2927 18.2838C32.9557 17.6464 32.6524 17.009 32.3155 16.3716C32.0122 15.8348 31.7426 15.298 31.4393 14.7613C31.2035 14.3587 30.9676 13.9225 30.7317 13.52C30.4621 13.0503 30.1926 12.5806 29.923 12.1109C29.6197 11.5742 29.3164 11.0709 29.0132 10.5342C28.7773 10.098 28.5077 9.6619 28.2381 9.22577C27.9685 8.72254 27.6653 8.25286 27.3957 7.74964C27.1261 7.31351 26.8902 6.87738 26.6207 6.44125C26.3511 5.97157 26.0815 5.5019 25.7782 5.03222C25.7782 4.99867 25.7445 4.99867 25.7108 4.96512C25.7108 5.06577 25.7108 5.09932 25.7108 5.16641C25.7108 5.40125 25.7108 5.60254 25.7108 5.83738C25.7108 6.10577 25.6771 6.34061 25.6434 6.60899C25.6434 6.77674 25.6098 6.97803 25.6098 7.14577C25.5761 7.54835 25.5087 7.95093 25.475 8.35351C25.4076 8.89029 25.3402 9.39351 25.2391 9.89674C25.138 10.5677 25.0032 11.2387 24.8347 11.8761C24.5988 12.9832 24.2956 14.0567 23.8238 15.0967C23.689 15.4322 23.5205 15.7342 23.2847 16.0361C23.1836 16.1703 23.0825 16.2709 22.9814 16.3716C22.8466 16.5058 22.6444 16.6064 22.4085 16.64C22.5433 16.7406 22.6107 16.8748 22.6107 17.009C22.6107 17.1432 22.5096 17.2438 22.4422 17.378C22.577 17.4451 22.7118 17.4787 22.8466 17.5458C23.2847 17.7471 23.6216 18.0825 23.9249 18.4516C24.363 18.9883 24.6662 19.6258 24.9021 20.2632C25.1717 21.0683 25.3739 21.8735 25.5087 22.7122C25.5424 22.9135 25.5424 23.1148 25.6098 23.3496ZM20.3867 27.6103C20.3867 27.6774 20.353 27.7109 20.353 27.7109C20.2182 28.3819 19.9823 29.0529 19.7465 29.7238C19.3084 30.8645 18.803 31.938 18.2975 33.0451C17.9942 33.6825 17.6909 34.32 17.3877 34.9574C17.0844 35.6284 16.7474 36.2993 16.4442 36.9367C16.1409 37.5742 15.8376 38.2116 15.568 38.849C15.2985 39.4864 14.9952 40.1238 14.7256 40.7613C14.3549 41.6 14.0517 42.4722 13.7484 43.3445C13.6136 43.7806 13.4788 44.2167 13.344 44.6529C13.2429 45.0219 13.1418 45.4245 13.0408 45.7935C12.8723 46.4309 12.7375 47.1019 12.6701 47.7729C12.6364 48.1084 12.569 48.4438 12.569 48.8129C12.5353 49.2826 12.569 49.7522 12.569 50.1884C12.569 50.3226 12.6027 50.4567 12.6027 50.5909C12.6701 50.5909 12.7038 50.5574 12.7375 50.5574C13.0071 50.4903 13.2429 50.4232 13.5125 50.3561C13.8832 50.289 14.2875 50.2219 14.6919 50.1548C15.2311 50.0877 15.7365 50.0206 16.2757 50.0206C16.4442 50.0206 16.5789 50.0206 16.7474 50.0206C17.1518 50.0206 17.5562 50.0206 17.9605 50.0542C18.0279 50.0542 18.0953 50.0206 18.129 49.9535C18.1964 49.8529 18.2638 49.7858 18.2975 49.6851C18.3986 49.4503 18.466 49.2155 18.5334 48.9471C18.6682 48.4438 18.7693 47.9406 18.8703 47.4038C18.9377 46.9677 19.0051 46.498 19.0725 46.0619C19.1399 45.6929 19.1736 45.3574 19.2073 44.9884C19.241 44.5858 19.3084 44.1832 19.3421 43.7806C19.3758 43.5458 19.3758 43.3445 19.4095 43.1096C19.4432 42.8413 19.4769 42.5729 19.4769 42.3045C19.5106 42.0361 19.5106 41.8013 19.5443 41.5329C19.578 41.2645 19.6117 40.9961 19.6117 40.7277C19.6454 40.4593 19.6454 40.1574 19.6791 39.889C19.7128 39.5871 19.7465 39.2851 19.7465 38.9832C19.7802 38.6813 19.7802 38.3458 19.8139 38.0438C19.8139 37.9096 19.8476 37.7419 19.8476 37.6077C19.8813 37.2722 19.915 36.9367 19.915 36.6013C19.915 36.4 19.9486 36.1651 19.9486 35.9638C19.9486 35.7961 19.9823 35.6284 19.9823 35.4606C20.016 35.2258 20.016 34.9574 20.0497 34.7225C20.0497 34.4877 20.0834 34.2864 20.0834 34.0516C20.1171 33.649 20.1508 33.2464 20.1508 32.8774C20.1845 32.5419 20.1845 32.2064 20.2182 31.8709C20.2519 31.5019 20.2519 31.1664 20.2856 30.7974C20.3193 30.3948 20.3193 30.0258 20.353 29.6232C20.353 29.2542 20.3867 28.8516 20.3867 28.4825C20.3867 28.4154 20.3867 28.3148 20.3867 28.2477C20.3867 27.9793 20.3867 27.8116 20.3867 27.6103ZM3.50449 18.4851C3.53819 18.5187 3.57188 18.5187 3.57188 18.5522C3.84146 18.72 4.07734 18.8877 4.34692 19.0554C5.08825 19.5251 5.82959 20.0284 6.57092 20.498C7.00898 20.8 7.48074 21.1019 7.9188 21.3703C8.76123 21.9406 9.63735 22.4774 10.4798 23.0477C10.682 23.1819 10.8841 23.3161 11.12 23.4503C11.1537 23.4503 11.1874 23.4838 11.2211 23.4838C11.2211 23.4503 11.2211 23.4503 11.2211 23.4503C11.2885 23.0142 11.3222 22.578 11.4233 22.1083C11.5244 21.4374 11.6592 20.8 11.8614 20.129C12.0298 19.4916 12.232 18.8877 12.569 18.3509C12.569 18.3174 12.569 18.3174 12.6027 18.2838C12.5353 18.2503 12.5016 18.2503 12.4679 18.2167C12.2657 18.1161 12.0972 17.9484 12.0635 17.7135C12.0298 17.4116 12.0298 17.1432 11.9961 16.8413C11.9961 16.6064 12.0635 16.4387 12.232 16.3045C12.2657 16.2709 12.2994 16.2374 12.3331 16.2038C12.2994 16.1703 12.2994 16.1367 12.2994 16.1032C12.1309 15.8348 11.9624 15.5329 11.8277 15.2309C11.6592 14.8284 11.4907 14.3922 11.3559 13.9896C11.1537 13.3858 10.9852 12.7483 10.8504 12.1109C10.7157 11.5071 10.5809 10.9032 10.4798 10.3329C10.3787 9.76254 10.3113 9.19222 10.2102 8.58835C10.1765 8.31996 10.1428 8.05157 10.1091 7.78319C10.0754 7.5148 10.0754 7.27996 10.0417 7.01158C10.008 6.77674 10.008 6.50835 9.97432 6.27351C9.97432 6.00512 9.94063 5.70319 9.94063 5.4348C9.94063 5.4348 9.94063 5.4348 9.90693 5.40125C9.87323 5.4348 9.87323 5.46835 9.87323 5.5019C9.70475 5.87093 9.53626 6.23996 9.36778 6.57545C9.23299 6.87738 9.0982 7.21287 8.92972 7.5148C8.76123 7.88383 8.59274 8.25286 8.42426 8.6219C8.25577 8.95738 8.08729 9.29287 7.9525 9.6619C7.68292 10.1987 7.44704 10.7354 7.17747 11.3058C7.00898 11.6413 6.8742 11.9432 6.70571 12.2787C6.46983 12.8154 6.20025 13.3522 5.93068 13.889C5.35783 14.9961 4.81868 16.1367 4.21213 17.2438C3.97625 17.6464 3.74037 18.0825 3.47079 18.4516C3.53819 18.418 3.53819 18.4516 3.50449 18.4851ZM19.8813 1.54319C19.8476 1.57674 19.8476 1.57674 19.8476 1.61028C19.8139 1.67738 19.7802 1.77803 19.7802 1.84512C19.6117 2.34835 19.4095 2.85157 19.2073 3.32125C18.9377 3.92512 18.6008 4.529 18.2638 5.13287C18.2301 5.19996 18.1964 5.30061 18.2301 5.3677C18.2301 5.40125 18.2638 5.4348 18.2638 5.4348C18.466 5.90448 18.6682 6.37416 18.8703 6.84383C19.241 7.74964 19.578 8.65545 19.915 9.5948C20.0834 10.0645 20.2182 10.5342 20.3867 11.0038C20.5889 11.6748 20.7911 12.3458 20.9596 12.9832C21.2628 14.1238 21.4987 15.2309 21.7009 16.4051C21.7346 16.5393 21.7346 16.5729 21.8694 16.5729C22.0042 16.5729 22.139 16.5729 22.2737 16.5729C22.5096 16.6064 22.7118 16.5393 22.8803 16.3716C23.1499 16.1367 23.3184 15.8684 23.4531 15.5664C23.5879 15.2645 23.7227 14.929 23.8575 14.6271C24.1608 13.8219 24.363 12.9832 24.5651 12.1445C24.7336 11.3058 24.9021 10.4671 25.0706 9.62835C25.1717 9.09157 25.2391 8.58835 25.3402 8.05158C25.4076 7.61545 25.475 7.14577 25.5087 6.70964C25.5761 6.27351 25.6098 5.83738 25.6434 5.40125C25.6771 5.23351 25.6771 5.06577 25.6771 4.89803C25.6771 4.76383 25.6771 4.69673 25.5761 4.59609C25.4076 4.42835 25.2054 4.3277 25.0032 4.22706C24.6325 4.05932 24.2619 3.89157 23.8575 3.75738C23.2847 3.55609 22.7118 3.38835 22.139 3.18706C21.6335 3.01932 21.1617 2.78448 20.7237 2.48254C20.3867 2.2477 20.0834 1.94577 19.915 1.54319C19.915 1.57674 19.8813 1.57674 19.8813 1.54319ZM9.33408 28.2813C9.50257 28.2813 9.63735 28.2813 9.80584 28.2142C9.94063 28.1471 10.0417 28.08 10.1091 27.9122C10.2102 27.7109 10.3113 27.5096 10.3787 27.3083C10.5472 26.9393 10.7157 26.5703 10.8841 26.1677C11.12 25.698 11.3222 25.2283 11.5581 24.7251C11.7603 24.289 11.6255 23.8193 11.2548 23.5509C11.12 23.4503 10.9852 23.3832 10.8841 23.3161C10.2439 22.9135 9.56996 22.5109 8.92972 22.1083C7.9862 21.538 7.04268 20.9342 6.09916 20.3638C5.25674 19.8271 4.38061 19.3238 3.53819 18.7871C3.4034 18.6864 3.23491 18.6529 3.06643 18.6529C2.86425 18.6193 2.66206 18.6864 2.52728 18.8542C2.42618 18.9548 2.35879 19.0554 2.2914 19.1561C1.98812 19.6258 1.68485 20.129 1.38158 20.5987C1.1457 20.9342 0.943514 21.2696 0.707635 21.6387C0.606544 21.8064 0.572848 21.9406 0.572848 22.1419C0.606545 22.5445 0.741332 22.9135 0.943515 23.249C1.28049 23.8529 1.78594 24.3561 2.2914 24.8258C2.59467 25.0942 2.89794 25.3625 3.23491 25.5974C3.60558 25.8658 4.00995 26.1342 4.38061 26.369C4.81868 26.6374 5.25674 26.8722 5.6948 27.1071C6.03177 27.2748 6.36874 27.4425 6.73941 27.5767C7.34595 27.8451 7.9862 28.0464 8.66014 28.1806C8.89602 28.2477 9.0982 28.2813 9.33408 28.2813ZM27.2946 28.2813C27.4631 28.2477 27.6653 28.2477 27.8338 28.2142C28.3729 28.1135 28.8784 27.9793 29.3838 27.778C30.0241 27.5432 30.6306 27.2748 31.2035 26.9393C31.6415 26.7045 32.0796 26.4696 32.4839 26.2013C32.8209 25.9664 33.1242 25.7651 33.4612 25.5303C33.8655 25.2619 34.2025 24.96 34.5395 24.658C34.7417 24.4567 34.9101 24.2554 35.1123 24.0542C35.3145 23.8193 35.483 23.5845 35.6515 23.3161C35.9211 22.9135 36.0895 22.4438 36.0558 21.9406C36.0558 21.84 36.0221 21.7393 35.9547 21.6387C35.7189 21.2696 35.483 20.9006 35.2471 20.5316C35.0449 20.2296 34.8427 19.8942 34.6406 19.5922C34.5058 19.3574 34.3373 19.1225 34.2025 18.9213C34.1014 18.7535 33.9329 18.6529 33.7307 18.6193C33.4949 18.5522 33.259 18.6193 33.0568 18.7535C32.3155 19.2232 31.5741 19.6593 30.8328 20.129C29.8893 20.6993 28.9458 21.2696 28.0359 21.84C27.4968 22.1754 26.9576 22.5109 26.4522 22.8129C26.0815 23.0477 25.7108 23.249 25.3739 23.4838C24.9358 23.7522 24.8684 24.2219 25.0369 24.6245C25.0706 24.6916 25.1043 24.7251 25.138 24.7922C25.2728 25.0942 25.4413 25.3961 25.5761 25.698C25.7108 25.9664 25.8119 26.2348 25.9467 26.5032C26.1489 26.9393 26.3511 27.3754 26.5196 27.778C26.587 27.9458 26.7555 28.0464 26.9239 28.08C27.0587 28.2813 27.1598 28.2813 27.2946 28.2813ZM18.0953 5.16641H18.129C18.1627 5.09932 18.1964 5.06577 18.1964 4.99867C18.2975 4.79738 18.3986 4.56254 18.466 4.36125C18.803 3.62319 19.1062 2.88512 19.3421 2.11351C19.3421 2.04641 19.3758 2.01287 19.3758 1.94577C19.4095 1.87867 19.3758 1.84512 19.3084 1.81157C19.2073 1.77803 19.1062 1.74448 19.0051 1.71093C18.6345 1.61028 18.2975 1.64383 17.9268 1.61028C17.6909 1.61028 17.4551 1.61028 17.2192 1.64383C17.017 1.67738 16.8485 1.71093 16.6463 1.74448C16.6126 1.74448 16.5452 1.77803 16.5116 1.84512C17.017 2.98577 17.5899 4.05932 18.0953 5.16641ZM15.0289 16.7742C14.8941 16.7742 14.793 16.7742 14.6582 16.7742C14.3886 16.7742 14.0854 16.7742 13.8158 16.7742C13.7484 16.7742 13.6473 16.7742 13.5799 16.8413C13.5125 16.9083 13.4788 17.009 13.5125 17.1096C13.5462 17.2103 13.5799 17.2438 13.7147 17.2438C13.7821 17.2438 13.8495 17.2438 13.8832 17.2438C14.2202 17.2103 14.5234 17.2103 14.8604 17.2103C15.7702 17.2103 16.68 17.2103 17.5562 17.2103C18.2301 17.2103 18.904 17.1767 19.578 17.2438C19.8813 17.2774 20.1845 17.2774 20.5215 17.2774C20.7237 17.2774 20.9259 17.3109 21.128 17.3109C21.4987 17.3109 21.8694 17.3445 22.2737 17.4116C22.4085 17.4451 22.5096 17.378 22.577 17.2438C22.6781 17.0425 22.577 16.7742 22.3748 16.7406C22.3074 16.7071 22.24 16.7071 22.1727 16.7071C21.9368 16.7071 21.7346 16.7406 21.4987 16.7406C20.8248 16.7406 20.1508 16.7406 19.5106 16.7742C18.9714 16.8077 18.466 16.7742 17.9268 16.8077C17.3203 16.8413 16.68 16.8413 16.0735 16.8413C15.7028 16.7742 15.3659 16.7742 15.0289 16.7742ZM16.4779 1.74448C16.5116 1.71093 16.5452 1.71093 16.5789 1.67738C16.7811 1.50964 17.017 1.44254 17.2529 1.37544C17.7246 1.2748 18.1627 1.2748 18.6345 1.3419C18.8703 1.37545 19.0725 1.44254 19.3084 1.54319C19.3758 1.57674 19.4095 1.61028 19.4769 1.64383C19.5106 1.50964 19.578 1.37545 19.6117 1.2748C19.6454 1.2077 19.6454 1.14061 19.6454 1.07351C19.6791 0.905767 19.6117 0.738026 19.4095 0.637381C19.3084 0.603833 19.1736 0.536735 19.0725 0.536735C18.8029 0.503187 18.5671 0.469639 18.2975 0.469639C17.9605 0.469639 17.6236 0.469639 17.2866 0.503187C17.017 0.536735 16.7474 0.570284 16.4779 0.637381C16.4105 0.67093 16.3094 0.704476 16.242 0.738025C16.1409 0.805122 16.1072 0.905767 16.1409 1.03996C16.1746 1.10706 16.1746 1.17415 16.2083 1.24125C16.3431 1.37544 16.4105 1.54319 16.4779 1.74448ZM12.7375 16.3716C12.5016 16.3716 12.2994 16.5393 12.2657 16.7406C12.2657 16.8077 12.232 16.8413 12.232 16.9083C12.1983 17.0761 12.1983 17.2438 12.1646 17.4116C12.1646 17.5122 12.1646 17.6129 12.1646 17.7135C12.1646 17.7806 12.1983 17.8813 12.232 17.9484C12.4005 18.1832 12.6364 18.2838 12.906 18.1832C13.1418 18.0825 13.2766 17.9148 13.2429 17.5793C13.2429 17.378 13.2092 17.1767 13.1755 16.9754C13.1755 16.9084 13.1418 16.8077 13.1418 16.7406C13.1418 16.5393 12.9397 16.338 12.7375 16.3716Z" fill="url(#paint0_linear_196_6964)"></path> <path d="M45.4707 42.6154C45.4105 42.6154 45.2903 42.6752 45.2301 42.6752C45.17 42.6752 45.0497 42.6752 44.9896 42.6752C44.8693 42.6752 44.8091 42.6154 44.6888 42.5555C44.5686 42.4956 44.5084 42.4358 44.3881 42.316C44.2679 42.1963 44.2077 42.0766 44.1476 41.897L43.9672 41.478H42.1629L41.6216 42.6752H41.3209L43.1252 38.4251H43.3056L44.749 41.8372C44.8091 41.9569 44.8693 42.0766 44.8693 42.1365C44.9294 42.1963 44.9896 42.316 45.0497 42.316C45.1098 42.3759 45.17 42.3759 45.2301 42.4358C45.2903 42.4358 45.3504 42.4956 45.4707 42.4956V42.6154ZM42.2231 41.1787H43.7867L43.0049 39.323L42.2231 41.1787Z" fill="url(#paint1_linear_196_6964)"></path> <path d="M48.3573 38.5448C48.5377 38.5448 48.7182 38.425 48.8986 38.4849C49.079 38.4849 49.3196 38.5448 49.4399 38.6645C49.6203 38.7243 49.7406 38.8441 49.8608 39.0236C49.9811 39.1434 50.0413 39.3828 50.0413 39.6222C50.0413 39.8018 49.9811 39.9814 49.8608 40.161C49.7406 40.3406 49.5 40.4603 49.1993 40.58C49.3797 40.6399 49.5601 40.6399 49.7406 40.6997C49.8609 40.7596 49.9811 40.8195 50.0413 40.9392C50.1014 40.999 50.1616 41.1188 50.2217 41.2385C50.2818 41.3582 50.2818 41.4779 50.2818 41.5976C50.2818 41.8371 50.2217 42.0167 50.1014 42.1963C49.9811 42.3758 49.8608 42.4357 49.6804 42.5554C49.5 42.6153 49.3196 42.6751 49.1392 42.735C48.9587 42.7949 48.7182 42.7949 48.5377 42.7949H47.2748V39.3229C47.2748 39.1434 47.2748 38.9638 47.2146 38.8441C47.1545 38.7243 47.0342 38.6645 46.8538 38.6645H46.7335V38.5448L48.3573 38.5448ZM48.4174 40.3406C48.5377 40.3406 48.658 40.3406 48.7783 40.2807C48.8986 40.2209 49.0189 40.161 49.079 40.1011C49.1993 40.0413 49.2594 39.9216 49.3196 39.8617C49.3797 39.742 49.3797 39.6222 49.3797 39.5025C49.3797 39.3229 49.3196 39.2032 49.2594 39.0835C49.1993 38.9638 49.079 38.9039 48.9587 38.8441C48.8384 38.7842 48.7182 38.7243 48.5979 38.6645C48.4776 38.6046 48.3573 38.6046 48.1769 38.6046C48.1167 38.6046 47.9965 38.6046 47.9363 38.6046C47.8762 38.6046 47.7559 38.6046 47.6957 38.6645V40.3406H48.4174ZM47.816 40.6399V42.316C47.9363 42.3758 47.9965 42.3758 48.1167 42.3758C48.237 42.3758 48.2972 42.3758 48.4174 42.3758C48.7783 42.3758 49.079 42.316 49.3196 42.1364C49.5601 41.9568 49.6203 41.7772 49.6203 41.4779C49.6203 41.1786 49.5 40.9392 49.3196 40.8195C49.1391 40.6399 48.8384 40.58 48.4174 40.58H47.816V40.6399Z" fill="url(#paint2_linear_196_6964)"></path> <path d="M55.4543 38.4251V38.6645H54.0109V42.6153H53.4095V38.6645H52.8081C52.5675 38.6645 52.327 38.7244 52.2067 38.8441C52.0864 38.9638 52.0262 39.1434 52.0262 39.3829H51.906V38.904C51.906 38.8441 51.906 38.7843 51.906 38.7244C51.906 38.6645 51.9661 38.6047 51.9661 38.5448C52.0263 38.485 52.0864 38.485 52.1465 38.4251C52.2067 38.4251 52.327 38.3652 52.4472 38.3652H55.4543V38.4251Z" fill="url(#paint3_linear_196_6964)"></path> <path d="M56.8976 40.5202C56.8976 40.2209 56.9577 39.9216 57.0178 39.6223C57.1381 39.323 57.2584 39.0835 57.4388 38.9039C57.6192 38.7244 57.7997 38.5448 58.0402 38.4251C58.2808 38.3053 58.5815 38.2455 58.8822 38.2455C59.1829 38.2455 59.4836 38.3053 59.7242 38.4251C59.9648 38.5448 60.2053 38.7244 60.3256 38.9039C60.506 39.0835 60.6263 39.323 60.7466 39.6223C60.8669 39.9216 60.8669 40.161 60.8669 40.5202C60.8669 40.8195 60.8067 41.1188 60.7466 41.4181C60.6263 41.7174 60.506 41.897 60.3256 42.1364C60.1452 42.316 59.9648 42.4956 59.7242 42.6153C59.4836 42.735 59.1829 42.7949 58.8822 42.7949C58.5815 42.7949 58.2808 42.735 58.0402 42.6153C57.7997 42.4956 57.5591 42.316 57.4388 42.1364C57.2584 41.9568 57.1381 41.7174 57.0178 41.4181C56.8976 41.1188 56.8976 40.8195 56.8976 40.5202ZM60.2053 40.5202C60.2053 40.2209 60.1452 39.9216 60.085 39.6821C60.0249 39.4427 59.9046 39.2032 59.8445 39.0835C59.7242 38.9039 59.6039 38.7842 59.4235 38.6645C59.2431 38.5448 59.0626 38.5448 58.8822 38.5448C58.7018 38.5448 58.4612 38.6046 58.3409 38.6645C58.1605 38.7842 58.0402 38.9039 57.92 39.0835C57.7997 39.2631 57.7395 39.4427 57.6794 39.6821C57.6192 39.9216 57.5591 40.2209 57.5591 40.5202C57.5591 40.8195 57.6192 41.1188 57.6794 41.3582C57.7395 41.5977 57.8598 41.8371 57.92 41.9568C58.0402 42.1364 58.1605 42.2561 58.3409 42.3759C58.5214 42.4956 58.7018 42.4956 58.8822 42.4956C59.0626 42.4956 59.3032 42.4357 59.4235 42.3759C59.6039 42.2561 59.7242 42.1364 59.8445 41.9568C59.9648 41.7773 60.0249 41.5977 60.085 41.3582C60.2053 41.1188 60.2053 40.8195 60.2053 40.5202Z" fill="url(#paint4_linear_196_6964)"></path> <path d="M63.6333 42.6153H63.0319V39.1434C63.0319 38.9638 63.0319 38.7843 62.9718 38.6645C62.9116 38.5448 62.7913 38.485 62.6109 38.485H62.4906V38.3652H64.1746C64.2949 38.3652 64.4753 38.3652 64.6557 38.4251C64.8361 38.4251 65.0166 38.485 65.197 38.6047C65.3774 38.6645 65.4977 38.8441 65.618 38.9638C65.7383 39.1434 65.7984 39.3829 65.7984 39.6223C65.7984 39.8019 65.7984 39.9815 65.7383 40.1012C65.6781 40.2209 65.618 40.3406 65.5578 40.4604C65.4977 40.5202 65.3774 40.6399 65.2571 40.6998C65.1368 40.7597 65.0767 40.8195 64.9564 40.8195C64.8361 40.8195 64.776 40.8794 64.6557 40.8794C64.5354 40.8794 64.4753 40.8794 64.4151 40.8794H63.6935V42.6153H63.6333ZM64.1144 40.6998C64.1746 40.6998 64.2949 40.6998 64.4151 40.6399C64.5354 40.5801 64.6557 40.5202 64.7159 40.4604C64.8361 40.4005 64.8963 40.2808 64.9564 40.1611C65.0166 40.0413 65.0767 39.8617 65.0767 39.6822C65.0767 39.5026 65.0166 39.323 64.9564 39.2033C64.8963 39.0836 64.776 38.9638 64.7159 38.904C64.5956 38.8441 64.4753 38.7843 64.4151 38.7244C64.2949 38.6645 64.1746 38.6645 64.1144 38.6645C64.0543 38.6645 63.934 38.6645 63.8739 38.6645C63.8137 38.6645 63.6934 38.6645 63.6333 38.7244V40.6399C63.6934 40.6399 63.7536 40.6998 63.8739 40.6998C63.9942 40.6998 64.0543 40.6998 64.1144 40.6998Z" fill="url(#paint5_linear_196_6964)"></path> <path d="M71.0306 39.742C70.9705 39.3229 70.7901 39.0236 70.5495 38.844C70.3089 38.6645 70.0684 38.5447 69.7075 38.5447C69.5271 38.5447 69.2865 38.6046 69.1061 38.6645C68.9257 38.7243 68.7452 38.844 68.625 39.0236C68.5047 39.2032 68.3844 39.3828 68.2641 39.6821C68.204 39.9215 68.1438 40.2807 68.1438 40.6399C68.1438 40.8793 68.1438 41.1187 68.204 41.3582C68.2641 41.5976 68.3243 41.7772 68.5047 41.9568C68.625 42.1364 68.8054 42.2561 68.9858 42.3758C69.1662 42.4955 69.4068 42.5554 69.7075 42.5554C70.0082 42.5554 70.3089 42.4955 70.5495 42.316C70.7901 42.1364 70.9705 41.9568 71.1509 41.6575L71.2712 41.7772C71.1509 41.9568 71.0306 42.1364 70.9103 42.2561C70.7901 42.3758 70.6698 42.4955 70.4893 42.5554C70.3691 42.6153 70.1886 42.6751 70.0082 42.735C69.8278 42.7948 69.6474 42.7948 69.4669 42.7948C69.1662 42.7948 68.8655 42.735 68.625 42.6153C68.3844 42.4955 68.1438 42.3758 68.0236 42.1364C67.8431 41.9568 67.7228 41.7173 67.6026 41.418C67.4823 41.1786 67.4823 40.8793 67.4823 40.58C67.4823 40.2807 67.5424 39.9814 67.6627 39.6821C67.783 39.3828 67.9033 39.1433 68.0837 38.9638C68.2641 38.7842 68.5047 38.6046 68.7452 38.4849C68.9858 38.3652 69.2264 38.3053 69.5271 38.3053C69.8879 38.3053 70.1886 38.3652 70.4292 38.4849C70.6698 38.6046 70.8502 38.7243 70.9705 38.844C71.0306 38.9638 71.0908 39.0835 71.0908 39.2631C71.0908 39.4427 71.0908 39.6222 71.0908 39.8018H71.0306V39.742Z" fill="url(#paint6_linear_196_6964)"></path> <path d="M73.4965 38.3652C73.6168 38.3652 73.677 38.4251 73.7972 38.4251C73.8574 38.4251 73.9175 38.485 73.9777 38.5448C74.0378 38.6047 74.0378 38.6645 74.098 38.7843C74.1581 38.904 74.098 39.0237 74.098 39.1434V40.4005L75.4211 39.0836C75.4812 39.0237 75.6015 38.904 75.6616 38.8441C75.7218 38.7843 75.8421 38.6645 75.9022 38.6047C75.9623 38.5448 76.0826 38.485 76.2029 38.4251C76.3232 38.3652 76.4435 38.3652 76.5638 38.3652H76.8645V38.5448C76.684 38.5448 76.5036 38.6047 76.3833 38.6645C76.263 38.7244 76.0826 38.8441 75.9022 39.0237L74.6392 40.2808L76.1428 41.8372C76.3232 42.0167 76.5036 42.1963 76.684 42.316C76.8645 42.4358 77.0449 42.5555 77.2253 42.5555V42.6752C77.1652 42.6752 77.105 42.7351 77.0449 42.7351C76.9847 42.7351 76.9246 42.7351 76.8043 42.7351C76.7442 42.7351 76.6239 42.7351 76.5036 42.7351C76.3833 42.7351 76.3232 42.6752 76.2029 42.6153C76.0826 42.5555 75.9623 42.4956 75.8421 42.3759C75.7218 42.2562 75.6015 42.1365 75.4211 41.9569L74.098 40.5202V42.6153H73.4965V39.1434C73.4965 38.9638 73.4965 38.7843 73.4364 38.6645C73.3763 38.5448 73.256 38.485 73.0755 38.485H72.9553V38.3652L73.4965 38.3652Z" fill="url(#paint7_linear_196_6964)"></path> <path d="M81.7357 38.9638L79.6909 42.6153H79.0895V39.1434C79.0895 38.9638 79.0895 38.7842 79.0294 38.6645C78.9692 38.5447 78.849 38.4849 78.6685 38.4849H78.5482V38.3652H79.1497C79.2699 38.3652 79.3301 38.3652 79.4504 38.3652C79.5105 38.3652 79.5707 38.425 79.6308 38.4849C79.6909 38.5447 79.6909 38.6046 79.7511 38.7243C79.8112 38.844 79.7511 38.9638 79.7511 39.0835V41.9568L81.7959 38.3053H82.3973V42.5554H81.7959V38.9638H81.7357Z" fill="url(#paint8_linear_196_6964)"></path> <path d="M87.0285 38.4251C87.1488 38.4251 87.209 38.4251 87.3292 38.485C87.3894 38.5448 87.4495 38.5448 87.5097 38.6047C87.5698 38.6646 87.5698 38.7244 87.5698 38.7843C87.5698 38.8441 87.5698 38.904 87.5698 38.9639V39.4427H87.4495C87.4495 39.2033 87.3894 39.0237 87.2691 38.904C87.1488 38.7843 86.9083 38.7244 86.6677 38.7244H85.4649V40.4005H87.209V40.64H85.4649V42.4358H86.6075C86.9083 42.4358 87.1488 42.3759 87.2691 42.2562C87.4495 42.1365 87.5698 41.9569 87.6901 41.7174L87.8104 41.7773L87.5698 42.3759C87.5097 42.4956 87.4495 42.5555 87.3894 42.6154C87.3292 42.6752 87.209 42.6752 87.0887 42.6752H84.8635V39.2033C84.8635 39.0237 84.8635 38.8441 84.8033 38.7244C84.7432 38.6047 84.6229 38.5448 84.4425 38.5448H84.262V38.4251H87.0285Z" fill="url(#paint9_linear_196_6964)"></path> <path d="M92.8021 38.4251C92.9224 38.4251 92.9825 38.4251 93.1028 38.4251C93.163 38.4251 93.2231 38.485 93.2833 38.5448C93.3434 38.6047 93.3434 38.6645 93.4035 38.7843C93.4637 38.904 93.4035 39.0237 93.4035 39.1434V40.4005L94.7266 39.0836C94.7868 39.0237 94.9071 38.904 94.9672 38.8441C95.0274 38.7843 95.1476 38.6645 95.2078 38.6047C95.2679 38.5448 95.3882 38.485 95.5085 38.4251C95.6288 38.3652 95.749 38.3652 95.8693 38.3652H96.17V38.5448C95.9896 38.5448 95.8092 38.6047 95.6889 38.6645C95.5686 38.7244 95.3882 38.8441 95.2078 39.0237L93.9448 40.2808L95.4483 41.8372C95.6288 42.0167 95.8092 42.1963 95.9896 42.316C96.17 42.4358 96.3505 42.5555 96.5309 42.5555V42.6752C96.4707 42.6752 96.4106 42.7351 96.3505 42.7351C96.2903 42.7351 96.2302 42.7351 96.1099 42.7351C96.0497 42.7351 95.9295 42.7351 95.8092 42.7351C95.6889 42.7351 95.6288 42.6752 95.5085 42.6153C95.3882 42.5555 95.2679 42.4956 95.1476 42.3759C95.0274 42.2562 94.9071 42.1365 94.7266 41.9569L93.4035 40.5202V42.6153H92.8021V39.1434C92.8021 38.9638 92.8021 38.7843 92.742 38.6645C92.6818 38.5448 92.5616 38.485 92.3811 38.485H92.2609V38.3652H92.8021V38.4251Z" fill="url(#paint10_linear_196_6964)"></path> <path d="M101.101 38.9638L99.0566 42.6153H98.4552V39.1434C98.4552 38.9638 98.4551 38.7842 98.395 38.6645C98.3349 38.5447 98.2146 38.4849 98.0342 38.4849H97.9139V38.3652H98.5153C98.6356 38.3652 98.6957 38.3652 98.816 38.3652C98.8761 38.3652 98.9363 38.425 98.9964 38.4849C99.0566 38.5447 99.0566 38.6046 99.1167 38.7243C99.1768 38.844 99.1167 38.9638 99.1167 39.0835V41.9568L101.162 38.3053H101.763V42.5554H101.162V38.9638H101.101Z" fill="url(#paint11_linear_196_6964)"></path> <path d="M108.92 42.9147C108.679 42.9147 108.499 42.9147 108.318 42.8548C108.138 42.7949 108.018 42.7351 107.957 42.6154C107.897 42.4956 107.777 42.3759 107.777 42.1963C107.717 42.0167 107.717 41.8372 107.717 41.5977V39.1434L106.093 42.6752H105.973L104.289 39.0836V42.6752H104.048V38.4251H104.65L106.213 41.7773L107.717 38.4251H108.318V41.5379C108.318 41.897 108.378 42.2562 108.439 42.4358C108.559 42.6752 108.679 42.7949 108.92 42.7949V42.9147Z" fill="url(#paint12_linear_196_6964)"></path> <path d="M110.544 40.5202C110.544 40.2209 110.604 39.9216 110.664 39.6223C110.784 39.323 110.905 39.0835 111.085 38.9039C111.266 38.7244 111.446 38.5448 111.687 38.4251C111.927 38.3053 112.228 38.2455 112.528 38.2455C112.829 38.2455 113.13 38.3053 113.37 38.4251C113.611 38.5448 113.852 38.7244 113.972 38.9039C114.152 39.0835 114.273 39.323 114.393 39.6223C114.513 39.9216 114.513 40.161 114.513 40.5202C114.513 40.8195 114.453 41.1188 114.393 41.4181C114.273 41.7174 114.152 41.897 113.972 42.1364C113.791 42.316 113.611 42.4956 113.37 42.6153C113.13 42.735 112.829 42.7949 112.528 42.7949C112.228 42.7949 111.927 42.735 111.687 42.6153C111.446 42.4956 111.205 42.316 111.085 42.1364C110.905 41.9568 110.784 41.7174 110.664 41.4181C110.544 41.1188 110.544 40.8195 110.544 40.5202ZM113.852 40.5202C113.852 40.2209 113.791 39.9216 113.731 39.6821C113.671 39.4427 113.551 39.2032 113.491 39.0835C113.37 38.9039 113.25 38.7842 113.07 38.6645C112.889 38.5448 112.709 38.5448 112.528 38.5448C112.348 38.5448 112.108 38.6046 111.987 38.6645C111.807 38.7842 111.687 38.9039 111.566 39.0835C111.446 39.2631 111.386 39.4427 111.326 39.6821C111.266 39.9216 111.205 40.2209 111.205 40.5202C111.205 40.8195 111.266 41.1188 111.326 41.3582C111.386 41.5977 111.506 41.8371 111.566 41.9568C111.687 42.1364 111.807 42.2561 111.987 42.3759C112.168 42.4956 112.348 42.4956 112.528 42.4956C112.709 42.4956 112.949 42.4357 113.07 42.3759C113.25 42.2561 113.37 42.1364 113.491 41.9568C113.611 41.7773 113.671 41.5977 113.731 41.3582C113.852 41.1188 113.852 40.8195 113.852 40.5202Z" fill="url(#paint13_linear_196_6964)"></path> <path d="M119.866 41.8371C119.866 42.0167 119.805 42.1962 119.866 42.316C119.926 42.4357 120.046 42.4955 120.226 42.4955H120.347V42.6153H119.745C119.625 42.6153 119.565 42.6153 119.445 42.6153C119.384 42.6153 119.324 42.5554 119.264 42.4955C119.204 42.4357 119.204 42.3758 119.144 42.2561C119.144 42.1364 119.144 42.0167 119.144 41.8371V40.58H117.219V42.6153H116.618V39.1434C116.618 38.9638 116.618 38.7842 116.558 38.6645C116.498 38.5447 116.377 38.4849 116.197 38.4849H116.137V38.3652H116.738C116.858 38.3652 116.919 38.3652 117.039 38.3652C117.099 38.3652 117.159 38.425 117.219 38.4849C117.279 38.5447 117.279 38.6046 117.34 38.7243C117.4 38.844 117.34 38.9638 117.34 39.0835V40.2208H119.264V38.3053H119.866V41.8371Z" fill="url(#paint14_linear_196_6964)"></path> <path d="M122.031 40.5202C122.031 40.2209 122.091 39.9216 122.151 39.6223C122.271 39.323 122.392 39.0835 122.572 38.9039C122.752 38.7244 122.933 38.5448 123.173 38.4251C123.414 38.3053 123.715 38.2455 124.015 38.2455C124.316 38.2455 124.617 38.3053 124.857 38.4251C125.098 38.5448 125.338 38.7244 125.459 38.9039C125.639 39.0835 125.759 39.323 125.88 39.6223C126 39.9216 126 40.161 126 40.5202C126 40.8195 125.94 41.1188 125.88 41.4181C125.759 41.7174 125.639 41.897 125.459 42.1364C125.278 42.316 125.098 42.4956 124.857 42.6153C124.617 42.735 124.316 42.7949 124.015 42.7949C123.715 42.7949 123.414 42.735 123.173 42.6153C122.933 42.4956 122.692 42.316 122.572 42.1364C122.392 41.9568 122.271 41.7174 122.151 41.4181C122.091 41.1188 122.031 40.8195 122.031 40.5202ZM125.399 40.5202C125.399 40.2209 125.338 39.9216 125.278 39.6821C125.218 39.4427 125.098 39.2032 125.038 39.0835C124.917 38.9039 124.797 38.7842 124.617 38.6645C124.436 38.5448 124.256 38.5448 124.075 38.5448C123.895 38.5448 123.654 38.6046 123.534 38.6645C123.354 38.7842 123.233 38.9039 123.113 39.0835C122.993 39.2631 122.933 39.4427 122.873 39.6821C122.812 39.9216 122.752 40.2209 122.752 40.5202C122.752 40.8195 122.812 41.1188 122.873 41.3582C122.933 41.5977 123.053 41.8371 123.113 41.9568C123.233 42.1364 123.354 42.2561 123.534 42.3759C123.715 42.4956 123.895 42.4956 124.075 42.4956C124.256 42.4956 124.496 42.4357 124.617 42.3759C124.797 42.2561 124.917 42.1364 125.038 41.9568C125.158 41.7773 125.218 41.5977 125.278 41.3582C125.338 41.1188 125.399 40.8195 125.399 40.5202Z" fill="url(#paint15_linear_196_6964)"></path> <path d="M44.8693 48.8432C44.8091 48.4241 44.6287 48.1248 44.3881 47.9452C44.1476 47.7657 43.907 47.6459 43.5462 47.6459C43.3657 47.6459 43.1252 47.7058 42.9447 47.7657C42.7643 47.8255 42.5839 47.9452 42.4636 48.1248C42.3433 48.3044 42.2231 48.484 42.1028 48.7833C42.0426 49.0227 41.9825 49.3819 41.9825 49.7411C41.9825 49.9805 41.9825 50.2199 42.0426 50.4594C42.1028 50.6988 42.1629 50.8784 42.3433 51.058C42.4636 51.2376 42.644 51.3573 42.8245 51.477C43.0049 51.5967 43.2455 51.6566 43.5462 51.6566C43.8469 51.6566 44.1476 51.5967 44.3881 51.4172C44.6287 51.2376 44.8091 51.058 44.9895 50.7587L45.1098 50.8784C44.9895 51.058 44.8693 51.2376 44.749 51.3573C44.6287 51.477 44.5084 51.5967 44.328 51.6566C44.2077 51.7165 44.0273 51.7763 43.8469 51.8362C43.6664 51.896 43.486 51.896 43.3056 51.896C43.0049 51.896 42.7042 51.8362 42.4636 51.7165C42.2231 51.5967 41.9825 51.477 41.8622 51.2376C41.6818 51.058 41.5615 50.8186 41.4412 50.5192C41.3209 50.2798 41.3209 49.9805 41.3209 49.6812C41.3209 49.3819 41.3811 49.0826 41.5014 48.7833C41.6216 48.484 41.7419 48.2445 41.9223 48.065C42.1028 47.8854 42.3433 47.7058 42.5839 47.5861C42.8245 47.4664 43.065 47.4065 43.3657 47.4065C43.7266 47.4065 44.0273 47.4664 44.2679 47.5861C44.5084 47.7058 44.6888 47.8255 44.8091 47.9452C44.8693 48.065 44.9294 48.1847 44.9294 48.3643C44.9294 48.5438 44.9294 48.7234 44.9294 48.903H44.8693V48.8432Z" fill="url(#paint16_linear_196_6964)"></path> <path d="M54.9129 52.0158C54.6723 52.0158 54.4919 52.0158 54.3115 51.9559C54.1311 51.8961 54.0108 51.8362 53.9506 51.7165C53.8905 51.5968 53.7702 51.477 53.7702 51.2975C53.7101 51.1179 53.7101 50.9383 53.7101 50.6988V48.2446L52.0862 51.7763H51.966L50.282 48.1847V51.7763H50.0414V47.5262H50.6429L52.2065 50.8784L53.7101 47.5262H54.3115V50.639C54.3115 50.9982 54.3716 51.3573 54.4318 51.5369C54.552 51.7763 54.6723 51.8961 54.9129 51.8961V52.0158Z" fill="url(#paint17_linear_196_6964)"></path> <path d="M59.1227 47.5262C59.243 47.5262 59.3031 47.5262 59.4234 47.5861C59.4835 47.646 59.5437 47.646 59.6038 47.7058C59.6639 47.7657 59.6639 47.8255 59.6639 47.8854C59.6639 47.9453 59.6639 48.0051 59.6639 48.065V48.5439H59.5437C59.5437 48.3044 59.4835 48.1248 59.3632 48.0051C59.243 47.8854 59.0024 47.8255 58.7618 47.8255H57.559V49.5016H59.3031V49.7411H57.559V51.5369H58.7017C59.0024 51.5369 59.243 51.477 59.3632 51.3573C59.5437 51.2376 59.6639 51.058 59.7842 50.8186L59.9045 50.8784L59.6639 51.477C59.6038 51.5968 59.5437 51.6566 59.4835 51.7165C59.4234 51.7763 59.3031 51.7763 59.1828 51.7763H56.9576V48.3044C56.9576 48.1248 56.9576 47.9453 56.8974 47.8255C56.8373 47.7058 56.717 47.646 56.5366 47.646H56.4163V47.5262H59.1227Z" fill="url(#paint18_linear_196_6964)"></path> <path d="M61.8893 51.7763H61.5886L63.2124 49.6812L62.3103 48.3643C62.2501 48.3044 62.19 48.1847 62.1298 48.1248C62.0697 48.065 62.0096 47.9453 61.9494 47.8854C61.8893 47.8255 61.769 47.7657 61.6487 47.7058C61.5284 47.646 61.4081 47.646 61.2879 47.646V47.5262H62.0697C62.19 47.5262 62.2501 47.5262 62.3704 47.5861C62.4305 47.646 62.5508 47.7058 62.611 47.7657C62.6711 47.8255 62.7313 47.8854 62.7914 48.0051C62.8515 48.065 62.9117 48.1847 62.9718 48.2446L63.6334 49.2023L64.8963 47.5262H65.197L63.7536 49.4418L64.7761 50.9383C64.8362 50.9982 64.8963 51.1179 64.9565 51.1777C65.0166 51.2376 65.0768 51.3573 65.197 51.4172C65.2572 51.477 65.3775 51.5369 65.4376 51.5967C65.4977 51.6566 65.618 51.6566 65.7383 51.6566V51.7763H65.0166C64.8963 51.7763 64.8362 51.7763 64.7159 51.7165C64.5956 51.6566 64.5355 51.5968 64.4754 51.5369C64.4152 51.477 64.3551 51.4172 64.2949 51.2974C64.2348 51.2376 64.1746 51.1179 64.1145 51.058L63.3327 49.9207L61.8893 51.7763Z" fill="url(#paint19_linear_196_6964)"></path> <path d="M66.9413 49.6213C66.9413 49.322 67.0015 49.0227 67.0616 48.7234C67.1217 48.4241 67.3022 48.1847 67.4826 48.0051C67.663 47.8255 67.8434 47.6459 68.084 47.5262C68.3246 47.4065 68.6253 47.3466 68.926 47.3466C69.2267 47.3466 69.5274 47.4065 69.768 47.5262C70.0085 47.6459 70.2491 47.8255 70.3694 48.0051C70.5498 48.1847 70.6701 48.4241 70.7904 48.7234C70.9107 49.0227 70.9107 49.2622 70.9107 49.6213C70.9107 49.9206 70.8505 50.2199 70.7904 50.5192C70.6701 50.8185 70.5498 50.9981 70.3694 51.2376C70.189 51.4171 70.0085 51.5967 69.768 51.7164C69.5274 51.8362 69.2267 51.896 68.926 51.896C68.6253 51.896 68.3246 51.8362 68.084 51.7164C67.8434 51.5967 67.6029 51.4171 67.4826 51.2376C67.3022 51.058 67.1819 50.8185 67.0616 50.5192C67.0015 50.2199 66.9413 49.9805 66.9413 49.6213ZM70.3092 49.6213C70.3092 49.322 70.2491 49.0227 70.189 48.7833C70.1288 48.5438 70.0085 48.3044 69.9484 48.1847C69.8281 48.0051 69.7078 47.8854 69.5274 47.7656C69.347 47.6459 69.1666 47.6459 68.9861 47.6459C68.8057 47.6459 68.5651 47.7058 68.4449 47.7656C68.2644 47.8854 68.1441 48.0051 68.0239 48.1847C67.9036 48.3642 67.8434 48.5438 67.7833 48.7833C67.7232 49.0227 67.663 49.322 67.663 49.6213C67.663 49.9206 67.7232 50.2199 67.7833 50.4594C67.8434 50.6988 67.9637 50.9383 68.0239 51.058C68.1441 51.2376 68.2644 51.3573 68.4449 51.477C68.6253 51.5967 68.8057 51.5967 68.9861 51.5967C69.1666 51.5967 69.4071 51.5369 69.5274 51.477C69.7078 51.3573 69.8281 51.2376 69.9484 51.058C70.0687 50.8784 70.1288 50.6988 70.189 50.4594C70.2491 50.2199 70.3092 49.9206 70.3092 49.6213Z" fill="url(#paint20_linear_196_6964)"></path> <path d="M77.947 52.0158C77.7065 52.0158 77.526 52.0158 77.3456 51.9559C77.1652 51.8961 77.0449 51.8362 76.9848 51.7165C76.9246 51.5968 76.8044 51.477 76.8044 51.2975C76.7442 51.1179 76.7442 50.9383 76.7442 50.6988V48.2446L75.1204 51.7763H75.0001L73.3162 48.1847V51.7763H73.0756V47.5262H73.677L75.2407 50.8784L76.7442 47.5262H77.3456V50.639C77.3456 50.9982 77.4058 51.3573 77.4659 51.5369C77.5862 51.7763 77.7065 51.8961 77.947 51.8961V52.0158Z" fill="url(#paint21_linear_196_6964)"></path> <path d="M42.4035 20.7616C42.4035 20.1029 42.3433 19.6239 42.1629 19.2048C41.9825 18.7857 41.5615 18.606 40.9601 18.606H40.7195V17.9474H43.3056C43.6664 17.9474 43.9671 18.0073 44.2077 18.0671C44.4483 18.1869 44.6287 18.3066 44.8091 18.5461C44.9294 18.7857 45.0497 19.0252 45.1098 19.3844C45.17 19.7437 45.2301 20.1628 45.2301 20.7017V24.7733L48.9589 20.1628C49.1994 19.8634 49.44 19.564 49.6806 19.3245C49.9211 19.0252 50.2218 18.8455 50.5226 18.606C50.8233 18.4264 51.1841 18.2468 51.545 18.127C51.9058 18.0073 52.2667 17.9474 52.7478 17.9474H54.2513V18.6659C53.4093 18.6659 52.6876 18.7857 52.0261 18.9653C51.3645 19.1449 50.8233 19.564 50.3421 20.1628L47.1546 24.1146L52.0862 29.2041C52.3869 29.5035 52.6275 29.8029 52.9884 30.0424C53.2891 30.2819 53.5898 30.5214 53.8905 30.7609C54.1912 30.9405 54.4919 31.1201 54.7324 31.2399C55.0332 31.3596 55.2737 31.4195 55.4542 31.4794V32.0183C55.2737 32.0781 55.0933 32.138 54.7926 32.138C54.4919 32.1979 54.1912 32.1979 53.8905 32.1979C53.4695 32.1979 53.1086 32.138 52.6876 32.0781C52.2667 32.0183 51.8457 31.8985 51.4247 31.7189C51.0037 31.5393 50.5827 31.2399 50.1016 30.9405C49.6204 30.6411 49.1393 30.1621 48.6582 29.6232L45.2301 26.0307V31.9584H42.4636L42.4035 20.7616Z" fill="url(#paint22_linear_196_6964)"></path> <path d="M56.9576 18.0073H59.7241V29.3238C59.7241 29.9825 59.7842 30.4615 59.9646 30.8806C60.1451 31.2998 60.5661 31.4794 61.1675 31.4794H61.408V32.138H58.822C58.4611 32.138 58.1604 32.0781 57.9198 32.0183C57.6793 31.9584 57.4988 31.7788 57.3184 31.5991C57.1981 31.3596 57.0779 31.1201 57.0177 30.7609C56.9576 30.4016 56.9576 29.9825 56.9576 29.4436V18.0073Z" fill="url(#paint23_linear_196_6964)"></path> <path d="M78.3077 28.4855C78.3077 29.8028 78.428 30.7608 78.6685 31.4194C78.9091 32.0781 79.3301 32.4373 79.8714 32.5571V33.096C78.3077 33.096 77.2252 32.7367 76.5035 32.0182C75.8419 31.2997 75.481 30.1022 75.481 28.5454V21.001L70.79 32.1978H70.0683L64.3549 20.5819V32.1978H63.2723V18.127H65.8584L71.0306 28.6053L75.4209 18.127H78.2476V28.4855H78.3077Z" fill="url(#paint24_linear_196_6964)"></path> <path d="M80.954 25.0728C80.954 23.995 81.1344 23.037 81.4351 22.1388C81.796 21.2407 82.2771 20.4623 82.8785 19.7438C83.4799 19.0852 84.2617 18.5463 85.1037 18.187C85.9457 17.8278 86.908 17.5883 87.9905 17.5883C89.073 17.5883 90.0353 17.7679 90.8773 18.187C91.7193 18.5463 92.5011 19.0852 93.1025 19.7438C93.7039 20.4024 94.1851 21.1808 94.5459 22.1388C94.9068 23.037 95.027 24.0549 95.027 25.0728C95.027 26.1505 94.8466 27.1085 94.5459 28.0067C94.1851 28.9048 93.7641 29.6832 93.1025 30.4017C92.5011 31.0604 91.7794 31.5993 90.8773 31.9585C90.0353 32.3178 89.073 32.5573 87.9905 32.5573C86.908 32.5573 85.9457 32.3776 85.1037 31.9585C84.2617 31.5993 83.4799 31.0604 82.8785 30.4017C82.2771 29.7431 81.796 28.9647 81.4351 28.0067C81.1344 27.1085 80.954 26.0907 80.954 25.0728ZM92.1403 25.0728C92.1403 22.9771 91.7794 21.4203 91.0577 20.2827C90.336 19.145 89.3136 18.6061 88.0507 18.6061C86.7275 18.6061 85.7653 19.145 85.0436 20.2827C84.3219 21.4203 83.961 23.037 83.961 25.0728C83.961 27.1684 84.3219 28.7252 85.0436 29.8628C85.7653 31.0005 86.7275 31.5394 88.0507 31.5394C89.3738 31.5394 90.336 31.0005 91.0577 29.8628C91.7794 28.7252 92.1403 27.1085 92.1403 25.0728Z" fill="url(#paint25_linear_196_6964)"></path> <path d="M107.898 27.8269V18.0073H108.98V32.138H108.018L98.9365 21.5399V32.0781H97.8539V20.5819C97.8539 20.2826 97.8539 20.043 97.7938 19.8035C97.7337 19.564 97.6134 19.3844 97.4931 19.2048C97.3728 19.0252 97.1322 18.9054 96.8917 18.7857C96.6511 18.6659 96.3504 18.6659 95.9896 18.6659H95.8693V18.0073H97.3728C98.2148 18.0073 98.8763 18.127 99.3575 18.3066C99.8386 18.5461 100.26 18.8455 100.62 19.2647L107.898 27.8269Z" fill="url(#paint26_linear_196_6964)"></path> <path d="M111.326 25.0728C111.326 23.995 111.506 23.037 111.807 22.1388C112.167 21.2407 112.649 20.4623 113.25 19.7438C113.851 19.0852 114.633 18.5463 115.475 18.187C116.317 17.8278 117.28 17.5883 118.362 17.5883C119.445 17.5883 120.407 17.7679 121.249 18.187C122.091 18.5463 122.873 19.0852 123.474 19.7438C124.075 20.4024 124.557 21.1808 124.917 22.1388C125.278 23.037 125.399 24.0549 125.399 25.0728C125.399 26.1505 125.218 27.1085 124.917 28.0067C124.557 28.9048 124.136 29.6832 123.474 30.4017C122.873 31.0604 122.151 31.5993 121.249 31.9585C120.407 32.3178 119.445 32.5573 118.362 32.5573C117.28 32.5573 116.317 32.3776 115.475 31.9585C114.633 31.5993 113.851 31.0604 113.25 30.4017C112.649 29.7431 112.167 28.9647 111.807 28.0067C111.506 27.1085 111.326 26.0907 111.326 25.0728ZM122.512 25.0728C122.512 22.9771 122.151 21.4203 121.429 20.2827C120.708 19.145 119.685 18.6061 118.422 18.6061C117.099 18.6061 116.137 19.145 115.415 20.2827C114.693 21.4203 114.333 23.037 114.333 25.0728C114.333 27.1684 114.693 28.7252 115.415 29.8628C116.137 31.0005 117.099 31.5394 118.422 31.5394C119.745 31.5394 120.708 31.0005 121.429 29.8628C122.151 28.7252 122.512 27.1085 122.512 25.0728Z" fill="url(#paint27_linear_196_6964)"></path> <path d="M122.756 51.0584C122.636 50.9985 122.516 50.9387 122.336 50.9387C120.298 50.819 118.26 50.6394 116.222 50.5795C113.464 50.5197 110.707 50.4598 107.949 50.3999C104.292 50.3401 100.636 50.2802 96.9789 50.2802C93.6818 50.2204 90.4447 50.1605 87.1476 50.1605C87.0277 50.1605 86.9677 50.1605 86.8478 50.1006C87.6871 50.1006 88.5263 50.0408 89.3656 50.0408C92.0033 49.9809 94.581 49.9809 97.2187 49.9211C101.475 49.8612 105.791 49.8013 110.047 49.7415C112.385 49.6816 114.663 49.6816 117.001 49.6218C118.56 49.5619 120.058 49.3823 121.557 49.3225C121.917 49.3225 122.336 49.2626 122.696 49.2027C123.236 49.1429 123.655 49.2626 123.955 49.8013C123.955 49.9809 123.955 50.1605 123.955 50.3999C123.775 50.6394 123.595 50.8788 123.356 51.1183C123.236 51.0584 122.996 51.0584 122.756 51.0584Z" fill="url(#paint28_linear_196_6964)"></path> </g> <defs> <linearGradient id="paint0_linear_196_6964" x1="-1.26789" y1="15.1442" x2="70.8747" y2="62.8522" gradientUnits="userSpaceOnUse"> <stop offset="0.0195531" stop-color="#C19A41"></stop> <stop offset="0.0668414" stop-color="#CAAA53"></stop> <stop offset="0.2039" stop-color="#E4D483"></stop> <stop offset="0.2192" stop-color="#E5D689"></stop> <stop offset="0.3071" stop-color="#ECE0A7"></stop> <stop offset="0.3824" stop-color="#F0E7B9"></stop> <stop offset="0.4358" stop-color="#F2E9C0"></stop> <stop offset="0.4873" stop-color="#F0E6BA"></stop> <stop offset="0.5545" stop-color="#ECDEAA"></stop> <stop offset="0.6301" stop-color="#E4D18F"></stop> <stop offset="0.6827" stop-color="#DDC578"></stop> <stop offset="0.918" stop-color="#C29949"></stop> <stop offset="1" stop-color="#B88937"></stop> </linearGradient> <linearGradient id="paint1_linear_196_6964" x1="-21.4962" y1="-1.31165" x2="107.241" y2="83.8447" gradientUnits="userSpaceOnUse"> <stop offset="0.0195531" stop-color="#C19A41"></stop> <stop offset="0.0668414" stop-color="#CAAA53"></stop> <stop offset="0.2039" stop-color="#E4D483"></stop> <stop offset="0.2192" stop-color="#E5D689"></stop> <stop offset="0.3071" stop-color="#ECE0A7"></stop> <stop offset="0.3824" stop-color="#F0E7B9"></stop> <stop offset="0.4358" stop-color="#F2E9C0"></stop> <stop offset="0.4873" stop-color="#F0E6BA"></stop> <stop offset="0.5545" stop-color="#ECDEAA"></stop> <stop offset="0.6301" stop-color="#E4D18F"></stop> <stop offset="0.6827" stop-color="#DDC578"></stop> <stop offset="0.918" stop-color="#C29949"></stop> <stop offset="1" stop-color="#B88937"></stop> </linearGradient> <linearGradient id="paint2_linear_196_6964" x1="-19.7164" y1="-4.00263" x2="109.021" y2="81.154" gradientUnits="userSpaceOnUse"> <stop offset="0.0195531" stop-color="#C19A41"></stop> <stop offset="0.0668414" stop-color="#CAAA53"></stop> <stop offset="0.2039" stop-color="#E4D483"></stop> <stop offset="0.2192" stop-color="#E5D689"></stop> <stop offset="0.3071" stop-color="#ECE0A7"></stop> <stop offset="0.3824" stop-color="#F0E7B9"></stop> <stop offset="0.4358" stop-color="#F2E9C0"></stop> <stop offset="0.4873" stop-color="#F0E6BA"></stop> <stop offset="0.5545" stop-color="#ECDEAA"></stop> <stop offset="0.6301" stop-color="#E4D18F"></stop> <stop offset="0.6827" stop-color="#DDC578"></stop> <stop offset="0.918" stop-color="#C29949"></stop> <stop offset="1" stop-color="#B88937"></stop> </linearGradient> <linearGradient id="paint3_linear_196_6964" x1="-17.8276" y1="-6.85738" x2="110.91" y2="78.299" gradientUnits="userSpaceOnUse"> <stop offset="0.0195531" stop-color="#C19A41"></stop> <stop offset="0.0668414" stop-color="#CAAA53"></stop> <stop offset="0.2039" stop-color="#E4D483"></stop> <stop offset="0.2192" stop-color="#E5D689"></stop> <stop offset="0.3071" stop-color="#ECE0A7"></stop> <stop offset="0.3824" stop-color="#F0E7B9"></stop> <stop offset="0.4358" stop-color="#F2E9C0"></stop> <stop offset="0.4873" stop-color="#F0E6BA"></stop> <stop offset="0.5545" stop-color="#ECDEAA"></stop> <stop offset="0.6301" stop-color="#E4D18F"></stop> <stop offset="0.6827" stop-color="#DDC578"></stop> <stop offset="0.918" stop-color="#C29949"></stop> <stop offset="1" stop-color="#B88937"></stop> </linearGradient> <linearGradient id="paint4_linear_196_6964" x1="-16.4973" y1="-8.86871" x2="112.24" y2="76.2877" gradientUnits="userSpaceOnUse"> <stop offset="0.0195531" stop-color="#C19A41"></stop> <stop offset="0.0668414" stop-color="#CAAA53"></stop> <stop offset="0.2039" stop-color="#E4D483"></stop> <stop offset="0.2192" stop-color="#E5D689"></stop> <stop offset="0.3071" stop-color="#ECE0A7"></stop> <stop offset="0.3824" stop-color="#F0E7B9"></stop> <stop offset="0.4358" stop-color="#F2E9C0"></stop> <stop offset="0.4873" stop-color="#F0E6BA"></stop> <stop offset="0.5545" stop-color="#ECDEAA"></stop> <stop offset="0.6301" stop-color="#E4D18F"></stop> <stop offset="0.6827" stop-color="#DDC578"></stop> <stop offset="0.918" stop-color="#C29949"></stop> <stop offset="1" stop-color="#B88937"></stop> </linearGradient> <linearGradient id="paint5_linear_196_6964" x1="-14.9533" y1="-11.2031" x2="113.784" y2="73.9534" gradientUnits="userSpaceOnUse"> <stop offset="0.0195531" stop-color="#C19A41"></stop> <stop offset="0.0668414" stop-color="#CAAA53"></stop> <stop offset="0.2039" stop-color="#E4D483"></stop> <stop offset="0.2192" stop-color="#E5D689"></stop> <stop offset="0.3071" stop-color="#ECE0A7"></stop> <stop offset="0.3824" stop-color="#F0E7B9"></stop> <stop offset="0.4358" stop-color="#F2E9C0"></stop> <stop offset="0.4873" stop-color="#F0E6BA"></stop> <stop offset="0.5545" stop-color="#ECDEAA"></stop> <stop offset="0.6301" stop-color="#E4D18F"></stop> <stop offset="0.6827" stop-color="#DDC578"></stop> <stop offset="0.918" stop-color="#C29949"></stop> <stop offset="1" stop-color="#B88937"></stop> </linearGradient> <linearGradient id="paint6_linear_196_6964" x1="-13.2564" y1="-13.7683" x2="115.481" y2="71.3877" gradientUnits="userSpaceOnUse"> <stop offset="0.0195531" stop-color="#C19A41"></stop> <stop offset="0.0668414" stop-color="#CAAA53"></stop> <stop offset="0.2039" stop-color="#E4D483"></stop> <stop offset="0.2192" stop-color="#E5D689"></stop> <stop offset="0.3071" stop-color="#ECE0A7"></stop> <stop offset="0.3824" stop-color="#F0E7B9"></stop> <stop offset="0.4358" stop-color="#F2E9C0"></stop> <stop offset="0.4873" stop-color="#F0E6BA"></stop> <stop offset="0.5545" stop-color="#ECDEAA"></stop> <stop offset="0.6301" stop-color="#E4D18F"></stop> <stop offset="0.6827" stop-color="#DDC578"></stop> <stop offset="0.918" stop-color="#C29949"></stop> <stop offset="1" stop-color="#B88937"></stop> </linearGradient> <linearGradient id="paint7_linear_196_6964" x1="-11.5767" y1="-16.3081" x2="117.161" y2="68.8486" gradientUnits="userSpaceOnUse"> <stop offset="0.0195531" stop-color="#C19A41"></stop> <stop offset="0.0668414" stop-color="#CAAA53"></stop> <stop offset="0.2039" stop-color="#E4D483"></stop> <stop offset="0.2192" stop-color="#E5D689"></stop> <stop offset="0.3071" stop-color="#ECE0A7"></stop> <stop offset="0.3824" stop-color="#F0E7B9"></stop> <stop offset="0.4358" stop-color="#F2E9C0"></stop> <stop offset="0.4873" stop-color="#F0E6BA"></stop> <stop offset="0.5545" stop-color="#ECDEAA"></stop> <stop offset="0.6301" stop-color="#E4D18F"></stop> <stop offset="0.6827" stop-color="#DDC578"></stop> <stop offset="0.918" stop-color="#C29949"></stop> <stop offset="1" stop-color="#B88937"></stop> </linearGradient> <linearGradient id="paint8_linear_196_6964" x1="-9.89138" y1="-18.8555" x2="118.846" y2="66.3005" gradientUnits="userSpaceOnUse"> <stop offset="0.0195531" stop-color="#C19A41"></stop> <stop offset="0.0668414" stop-color="#CAAA53"></stop> <stop offset="0.2039" stop-color="#E4D483"></stop> <stop offset="0.2192" stop-color="#E5D689"></stop> <stop offset="0.3071" stop-color="#ECE0A7"></stop> <stop offset="0.3824" stop-color="#F0E7B9"></stop> <stop offset="0.4358" stop-color="#F2E9C0"></stop> <stop offset="0.4873" stop-color="#F0E6BA"></stop> <stop offset="0.5545" stop-color="#ECDEAA"></stop> <stop offset="0.6301" stop-color="#E4D18F"></stop> <stop offset="0.6827" stop-color="#DDC578"></stop> <stop offset="0.918" stop-color="#C29949"></stop> <stop offset="1" stop-color="#B88937"></stop> </linearGradient> <linearGradient id="paint9_linear_196_6964" x1="-8.28307" y1="-21.286" x2="120.454" y2="63.8699" gradientUnits="userSpaceOnUse"> <stop offset="0.0195531" stop-color="#C19A41"></stop> <stop offset="0.0668414" stop-color="#CAAA53"></stop> <stop offset="0.2039" stop-color="#E4D483"></stop> <stop offset="0.2192" stop-color="#E5D689"></stop> <stop offset="0.3071" stop-color="#ECE0A7"></stop> <stop offset="0.3824" stop-color="#F0E7B9"></stop> <stop offset="0.4358" stop-color="#F2E9C0"></stop> <stop offset="0.4873" stop-color="#F0E6BA"></stop> <stop offset="0.5545" stop-color="#ECDEAA"></stop> <stop offset="0.6301" stop-color="#E4D18F"></stop> <stop offset="0.6827" stop-color="#DDC578"></stop> <stop offset="0.918" stop-color="#C29949"></stop> <stop offset="1" stop-color="#B88937"></stop> </linearGradient> <linearGradient id="paint10_linear_196_6964" x1="-5.7278" y1="-25.1491" x2="123.01" y2="60.0068" gradientUnits="userSpaceOnUse"> <stop offset="0.0195531" stop-color="#C19A41"></stop> <stop offset="0.0668414" stop-color="#CAAA53"></stop> <stop offset="0.2039" stop-color="#E4D483"></stop> <stop offset="0.2192" stop-color="#E5D689"></stop> <stop offset="0.3071" stop-color="#ECE0A7"></stop> <stop offset="0.3824" stop-color="#F0E7B9"></stop> <stop offset="0.4358" stop-color="#F2E9C0"></stop> <stop offset="0.4873" stop-color="#F0E6BA"></stop> <stop offset="0.5545" stop-color="#ECDEAA"></stop> <stop offset="0.6301" stop-color="#E4D18F"></stop> <stop offset="0.6827" stop-color="#DDC578"></stop> <stop offset="0.918" stop-color="#C29949"></stop> <stop offset="1" stop-color="#B88937"></stop> </linearGradient> <linearGradient id="paint11_linear_196_6964" x1="-4.04382" y1="-27.6964" x2="124.694" y2="57.4604" gradientUnits="userSpaceOnUse"> <stop offset="0.0195531" stop-color="#C19A41"></stop> <stop offset="0.0668414" stop-color="#CAAA53"></stop> <stop offset="0.2039" stop-color="#E4D483"></stop> <stop offset="0.2192" stop-color="#E5D689"></stop> <stop offset="0.3071" stop-color="#ECE0A7"></stop> <stop offset="0.3824" stop-color="#F0E7B9"></stop> <stop offset="0.4358" stop-color="#F2E9C0"></stop> <stop offset="0.4873" stop-color="#F0E6BA"></stop> <stop offset="0.5545" stop-color="#ECDEAA"></stop> <stop offset="0.6301" stop-color="#E4D18F"></stop> <stop offset="0.6827" stop-color="#DDC578"></stop> <stop offset="0.918" stop-color="#C29949"></stop> <stop offset="1" stop-color="#B88937"></stop> </linearGradient> <linearGradient id="paint12_linear_196_6964" x1="-2.193" y1="-30.4933" x2="126.544" y2="54.6627" gradientUnits="userSpaceOnUse"> <stop offset="0.0195531" stop-color="#C19A41"></stop> <stop offset="0.0668414" stop-color="#CAAA53"></stop> <stop offset="0.2039" stop-color="#E4D483"></stop> <stop offset="0.2192" stop-color="#E5D689"></stop> <stop offset="0.3071" stop-color="#ECE0A7"></stop> <stop offset="0.3824" stop-color="#F0E7B9"></stop> <stop offset="0.4358" stop-color="#F2E9C0"></stop> <stop offset="0.4873" stop-color="#F0E6BA"></stop> <stop offset="0.5545" stop-color="#ECDEAA"></stop> <stop offset="0.6301" stop-color="#E4D18F"></stop> <stop offset="0.6827" stop-color="#DDC578"></stop> <stop offset="0.918" stop-color="#C29949"></stop> <stop offset="1" stop-color="#B88937"></stop> </linearGradient> <linearGradient id="paint13_linear_196_6964" x1="-0.276613" y1="-33.3904" x2="128.461" y2="51.7659" gradientUnits="userSpaceOnUse"> <stop offset="0.0195531" stop-color="#C19A41"></stop> <stop offset="0.0668414" stop-color="#CAAA53"></stop> <stop offset="0.2039" stop-color="#E4D483"></stop> <stop offset="0.2192" stop-color="#E5D689"></stop> <stop offset="0.3071" stop-color="#ECE0A7"></stop> <stop offset="0.3824" stop-color="#F0E7B9"></stop> <stop offset="0.4358" stop-color="#F2E9C0"></stop> <stop offset="0.4873" stop-color="#F0E6BA"></stop> <stop offset="0.5545" stop-color="#ECDEAA"></stop> <stop offset="0.6301" stop-color="#E4D18F"></stop> <stop offset="0.6827" stop-color="#DDC578"></stop> <stop offset="0.918" stop-color="#C29949"></stop> <stop offset="1" stop-color="#B88937"></stop> </linearGradient> <linearGradient id="paint14_linear_196_6964" x1="1.46297" y1="-36.0204" x2="130.2" y2="49.1356" gradientUnits="userSpaceOnUse"> <stop offset="0.0195531" stop-color="#C19A41"></stop> <stop offset="0.0668414" stop-color="#CAAA53"></stop> <stop offset="0.2039" stop-color="#E4D483"></stop> <stop offset="0.2192" stop-color="#E5D689"></stop> <stop offset="0.3071" stop-color="#ECE0A7"></stop> <stop offset="0.3824" stop-color="#F0E7B9"></stop> <stop offset="0.4358" stop-color="#F2E9C0"></stop> <stop offset="0.4873" stop-color="#F0E6BA"></stop> <stop offset="0.5545" stop-color="#ECDEAA"></stop> <stop offset="0.6301" stop-color="#E4D18F"></stop> <stop offset="0.6827" stop-color="#DDC578"></stop> <stop offset="0.918" stop-color="#C29949"></stop> <stop offset="1" stop-color="#B88937"></stop> </linearGradient> <linearGradient id="paint15_linear_196_6964" x1="3.20361" y1="-38.6527" x2="131.941" y2="46.5041" gradientUnits="userSpaceOnUse"> <stop offset="0.0195531" stop-color="#C19A41"></stop> <stop offset="0.0668414" stop-color="#CAAA53"></stop> <stop offset="0.2039" stop-color="#E4D483"></stop> <stop offset="0.2192" stop-color="#E5D689"></stop> <stop offset="0.3071" stop-color="#ECE0A7"></stop> <stop offset="0.3824" stop-color="#F0E7B9"></stop> <stop offset="0.4358" stop-color="#F2E9C0"></stop> <stop offset="0.4873" stop-color="#F0E6BA"></stop> <stop offset="0.5545" stop-color="#ECDEAA"></stop> <stop offset="0.6301" stop-color="#E4D18F"></stop> <stop offset="0.6827" stop-color="#DDC578"></stop> <stop offset="0.918" stop-color="#C29949"></stop> <stop offset="1" stop-color="#B88937"></stop> </linearGradient> <linearGradient id="paint16_linear_196_6964" x1="-25.3759" y1="4.55629" x2="103.361" y2="89.7124" gradientUnits="userSpaceOnUse"> <stop offset="0.0195531" stop-color="#C19A41"></stop> <stop offset="0.0668414" stop-color="#CAAA53"></stop> <stop offset="0.2039" stop-color="#E4D483"></stop> <stop offset="0.2192" stop-color="#E5D689"></stop> <stop offset="0.3071" stop-color="#ECE0A7"></stop> <stop offset="0.3824" stop-color="#F0E7B9"></stop> <stop offset="0.4358" stop-color="#F2E9C0"></stop> <stop offset="0.4873" stop-color="#F0E6BA"></stop> <stop offset="0.5545" stop-color="#ECDEAA"></stop> <stop offset="0.6301" stop-color="#E4D18F"></stop> <stop offset="0.6827" stop-color="#DDC578"></stop> <stop offset="0.918" stop-color="#C29949"></stop> <stop offset="1" stop-color="#B88937"></stop> </linearGradient> <linearGradient id="paint17_linear_196_6964" x1="-22.7242" y1="0.547402" x2="106.013" y2="85.7037" gradientUnits="userSpaceOnUse"> <stop offset="0.0195531" stop-color="#C19A41"></stop> <stop offset="0.0668414" stop-color="#CAAA53"></stop> <stop offset="0.2039" stop-color="#E4D483"></stop> <stop offset="0.2192" stop-color="#E5D689"></stop> <stop offset="0.3071" stop-color="#ECE0A7"></stop> <stop offset="0.3824" stop-color="#F0E7B9"></stop> <stop offset="0.4358" stop-color="#F2E9C0"></stop> <stop offset="0.4873" stop-color="#F0E6BA"></stop> <stop offset="0.5545" stop-color="#ECDEAA"></stop> <stop offset="0.6301" stop-color="#E4D18F"></stop> <stop offset="0.6827" stop-color="#DDC578"></stop> <stop offset="0.918" stop-color="#C29949"></stop> <stop offset="1" stop-color="#B88937"></stop> </linearGradient> <linearGradient id="paint18_linear_196_6964" x1="-20.9279" y1="-2.16814" x2="107.809" y2="82.988" gradientUnits="userSpaceOnUse"> <stop offset="0.0195531" stop-color="#C19A41"></stop> <stop offset="0.0668414" stop-color="#CAAA53"></stop> <stop offset="0.2039" stop-color="#E4D483"></stop> <stop offset="0.2192" stop-color="#E5D689"></stop> <stop offset="0.3071" stop-color="#ECE0A7"></stop> <stop offset="0.3824" stop-color="#F0E7B9"></stop> <stop offset="0.4358" stop-color="#F2E9C0"></stop> <stop offset="0.4873" stop-color="#F0E6BA"></stop> <stop offset="0.5545" stop-color="#ECDEAA"></stop> <stop offset="0.6301" stop-color="#E4D18F"></stop> <stop offset="0.6827" stop-color="#DDC578"></stop> <stop offset="0.918" stop-color="#C29949"></stop> <stop offset="1" stop-color="#B88937"></stop> </linearGradient> <linearGradient id="paint19_linear_196_6964" x1="-19.3345" y1="-4.57672" x2="109.403" y2="80.5794" gradientUnits="userSpaceOnUse"> <stop offset="0.0195531" stop-color="#C19A41"></stop> <stop offset="0.0668414" stop-color="#CAAA53"></stop> <stop offset="0.2039" stop-color="#E4D483"></stop> <stop offset="0.2192" stop-color="#E5D689"></stop> <stop offset="0.3071" stop-color="#ECE0A7"></stop> <stop offset="0.3824" stop-color="#F0E7B9"></stop> <stop offset="0.4358" stop-color="#F2E9C0"></stop> <stop offset="0.4873" stop-color="#F0E6BA"></stop> <stop offset="0.5545" stop-color="#ECDEAA"></stop> <stop offset="0.6301" stop-color="#E4D18F"></stop> <stop offset="0.6827" stop-color="#DDC578"></stop> <stop offset="0.918" stop-color="#C29949"></stop> <stop offset="1" stop-color="#B88937"></stop> </linearGradient> <linearGradient id="paint20_linear_196_6964" x1="-17.6537" y1="-7.11844" x2="111.084" y2="78.0384" gradientUnits="userSpaceOnUse"> <stop offset="0.0195531" stop-color="#C19A41"></stop> <stop offset="0.0668414" stop-color="#CAAA53"></stop> <stop offset="0.2039" stop-color="#E4D483"></stop> <stop offset="0.2192" stop-color="#E5D689"></stop> <stop offset="0.3071" stop-color="#ECE0A7"></stop> <stop offset="0.3824" stop-color="#F0E7B9"></stop> <stop offset="0.4358" stop-color="#F2E9C0"></stop> <stop offset="0.4873" stop-color="#F0E6BA"></stop> <stop offset="0.5545" stop-color="#ECDEAA"></stop> <stop offset="0.6301" stop-color="#E4D18F"></stop> <stop offset="0.6827" stop-color="#DDC578"></stop> <stop offset="0.918" stop-color="#C29949"></stop> <stop offset="1" stop-color="#B88937"></stop> </linearGradient> <linearGradient id="paint21_linear_196_6964" x1="-15.7645" y1="-9.97423" x2="112.973" y2="75.1822" gradientUnits="userSpaceOnUse"> <stop offset="0.0195531" stop-color="#C19A41"></stop> <stop offset="0.0668414" stop-color="#CAAA53"></stop> <stop offset="0.2039" stop-color="#E4D483"></stop> <stop offset="0.2192" stop-color="#E5D689"></stop> <stop offset="0.3071" stop-color="#ECE0A7"></stop> <stop offset="0.3824" stop-color="#F0E7B9"></stop> <stop offset="0.4358" stop-color="#F2E9C0"></stop> <stop offset="0.4873" stop-color="#F0E6BA"></stop> <stop offset="0.5545" stop-color="#ECDEAA"></stop> <stop offset="0.6301" stop-color="#E4D18F"></stop> <stop offset="0.6827" stop-color="#DDC578"></stop> <stop offset="0.918" stop-color="#C29949"></stop> <stop offset="1" stop-color="#B88937"></stop> </linearGradient> <linearGradient id="paint22_linear_196_6964" x1="-12.5434" y1="-14.86" x2="116.214" y2="70.2877" gradientUnits="userSpaceOnUse"> <stop offset="0.0195531" stop-color="#C19A41"></stop> <stop offset="0.0668414" stop-color="#CAAA53"></stop> <stop offset="0.2039" stop-color="#E4D483"></stop> <stop offset="0.2192" stop-color="#E5D689"></stop> <stop offset="0.3071" stop-color="#ECE0A7"></stop> <stop offset="0.3824" stop-color="#F0E7B9"></stop> <stop offset="0.4358" stop-color="#F2E9C0"></stop> <stop offset="0.4873" stop-color="#F0E6BA"></stop> <stop offset="0.5545" stop-color="#ECDEAA"></stop> <stop offset="0.6301" stop-color="#E4D18F"></stop> <stop offset="0.6827" stop-color="#DDC578"></stop> <stop offset="0.918" stop-color="#C29949"></stop> <stop offset="1" stop-color="#B88937"></stop> </linearGradient> <linearGradient id="paint23_linear_196_6964" x1="-9.35636" y1="-19.6795" x2="119.401" y2="65.4682" gradientUnits="userSpaceOnUse"> <stop offset="0.0195531" stop-color="#C19A41"></stop> <stop offset="0.0668414" stop-color="#CAAA53"></stop> <stop offset="0.2039" stop-color="#E4D483"></stop> <stop offset="0.2192" stop-color="#E5D689"></stop> <stop offset="0.3071" stop-color="#ECE0A7"></stop> <stop offset="0.3824" stop-color="#F0E7B9"></stop> <stop offset="0.4358" stop-color="#F2E9C0"></stop> <stop offset="0.4873" stop-color="#F0E6BA"></stop> <stop offset="0.5545" stop-color="#ECDEAA"></stop> <stop offset="0.6301" stop-color="#E4D18F"></stop> <stop offset="0.6827" stop-color="#DDC578"></stop> <stop offset="0.918" stop-color="#C29949"></stop> <stop offset="1" stop-color="#B88937"></stop> </linearGradient> <linearGradient id="paint24_linear_196_6964" x1="-5.7432" y1="-25.1434" x2="123.015" y2="60.0044" gradientUnits="userSpaceOnUse"> <stop offset="0.0195531" stop-color="#C19A41"></stop> <stop offset="0.0668414" stop-color="#CAAA53"></stop> <stop offset="0.2039" stop-color="#E4D483"></stop> <stop offset="0.2192" stop-color="#E5D689"></stop> <stop offset="0.3071" stop-color="#ECE0A7"></stop> <stop offset="0.3824" stop-color="#F0E7B9"></stop> <stop offset="0.4358" stop-color="#F2E9C0"></stop> <stop offset="0.4873" stop-color="#F0E6BA"></stop> <stop offset="0.5545" stop-color="#ECDEAA"></stop> <stop offset="0.6301" stop-color="#E4D18F"></stop> <stop offset="0.6827" stop-color="#DDC578"></stop> <stop offset="0.918" stop-color="#C29949"></stop> <stop offset="1" stop-color="#B88937"></stop> </linearGradient> <linearGradient id="paint25_linear_196_6964" x1="-0.542618" y1="-33.0071" x2="128.215" y2="52.1406" gradientUnits="userSpaceOnUse"> <stop offset="0.0195531" stop-color="#C19A41"></stop> <stop offset="0.0668414" stop-color="#CAAA53"></stop> <stop offset="0.2039" stop-color="#E4D483"></stop> <stop offset="0.2192" stop-color="#E5D689"></stop> <stop offset="0.3071" stop-color="#ECE0A7"></stop> <stop offset="0.3824" stop-color="#F0E7B9"></stop> <stop offset="0.4358" stop-color="#F2E9C0"></stop> <stop offset="0.4873" stop-color="#F0E6BA"></stop> <stop offset="0.5545" stop-color="#ECDEAA"></stop> <stop offset="0.6301" stop-color="#E4D18F"></stop> <stop offset="0.6827" stop-color="#DDC578"></stop> <stop offset="0.918" stop-color="#C29949"></stop> <stop offset="1" stop-color="#B88937"></stop> </linearGradient> <linearGradient id="paint26_linear_196_6964" x1="4.10805" y1="-40.0396" x2="132.866" y2="45.1081" gradientUnits="userSpaceOnUse"> <stop offset="0.0195531" stop-color="#C19A41"></stop> <stop offset="0.0668414" stop-color="#CAAA53"></stop> <stop offset="0.2039" stop-color="#E4D483"></stop> <stop offset="0.2192" stop-color="#E5D689"></stop> <stop offset="0.3071" stop-color="#ECE0A7"></stop> <stop offset="0.3824" stop-color="#F0E7B9"></stop> <stop offset="0.4358" stop-color="#F2E9C0"></stop> <stop offset="0.4873" stop-color="#F0E6BA"></stop> <stop offset="0.5545" stop-color="#ECDEAA"></stop> <stop offset="0.6301" stop-color="#E4D18F"></stop> <stop offset="0.6827" stop-color="#DDC578"></stop> <stop offset="0.918" stop-color="#C29949"></stop> <stop offset="1" stop-color="#B88937"></stop> </linearGradient> <linearGradient id="paint27_linear_196_6964" x1="8.64782" y1="-46.9042" x2="137.405" y2="38.2433" gradientUnits="userSpaceOnUse"> <stop offset="0.0195531" stop-color="#C19A41"></stop> <stop offset="0.0668414" stop-color="#CAAA53"></stop> <stop offset="0.2039" stop-color="#E4D483"></stop> <stop offset="0.2192" stop-color="#E5D689"></stop> <stop offset="0.3071" stop-color="#ECE0A7"></stop> <stop offset="0.3824" stop-color="#F0E7B9"></stop> <stop offset="0.4358" stop-color="#F2E9C0"></stop> <stop offset="0.4873" stop-color="#F0E6BA"></stop> <stop offset="0.5545" stop-color="#ECDEAA"></stop> <stop offset="0.6301" stop-color="#E4D18F"></stop> <stop offset="0.6827" stop-color="#DDC578"></stop> <stop offset="0.918" stop-color="#C29949"></stop> <stop offset="1" stop-color="#B88937"></stop> </linearGradient> <linearGradient id="paint28_linear_196_6964" x1="-6.36999" y1="-23.7197" x2="122.204" y2="61.0537" gradientUnits="userSpaceOnUse"> <stop offset="0.0195531" stop-color="#C19A41"></stop> <stop offset="0.0668414" stop-color="#CAAA53"></stop> <stop offset="0.2039" stop-color="#E4D483"></stop> <stop offset="0.2192" stop-color="#E5D689"></stop> <stop offset="0.3071" stop-color="#ECE0A7"></stop> <stop offset="0.3824" stop-color="#F0E7B9"></stop> <stop offset="0.4358" stop-color="#F2E9C0"></stop> <stop offset="0.4873" stop-color="#F0E6BA"></stop> <stop offset="0.5545" stop-color="#ECDEAA"></stop> <stop offset="0.6301" stop-color="#E4D18F"></stop> <stop offset="0.6827" stop-color="#DDC578"></stop> <stop offset="0.918" stop-color="#C29949"></stop> <stop offset="1" stop-color="#B88937"></stop> </linearGradient> <clipPath id="clip0_196_6964"> <rect width="126" height="52" fill="white"></rect> </clipPath> </defs> </svg> 