<svg width="71" height="40" viewBox="0 0 71 40" fill="none" xmlns="http://www.w3.org/2000/svg">
    <path d="M57.1392 2.54713V0L53.5588 1.30708V3.83745L54.2707 3.58609L57.1392 2.54713Z" fill="#281812"></path>
    <path d="M57.1182 18.0478V15.9363L54.522 16.8915V18.7851C54.522 19.0532 54.2707 19.2543 53.9357 19.2543H51.7791C51.465 19.2543 51.1928 19.0532 51.1928 18.7851V16.0201L54.501 14.8471V12.3167L51.1928 13.473V12.3167V11.4453V11.2275V8.37871C51.1928 8.11059 51.465 7.9095 51.7791 7.9095H53.9357C54.2707 7.9095 54.522 8.11059 54.522 8.37871V10.2555L57.1392 11.0767V6.01591H47.6544V6.8873C47.6544 6.8873 47.6544 6.8873 47.6544 6.90406V11.2442V15.5341V20.2932C47.6544 20.6284 47.3403 20.9971 46.9215 21.1144V21.1646H57.1392V18.0478H57.1182Z" fill="#281812"></path>
    <path d="M45.4978 17.4445V15.5677L41.9174 16.8747V18.8018C41.9174 19.07 41.6452 19.2711 41.3102 19.2711H40.1587C39.8237 19.2711 39.5515 19.07 39.5515 18.8018V5.02723C39.5515 4.64181 39.8655 4.32342 40.2843 4.1726V4.12233H35.2383V4.1726C35.657 4.32342 35.9711 4.64181 35.9711 5.02723V20.2597C35.9711 20.6452 35.657 20.9636 35.2383 21.1144V21.1646H45.5187V17.4445H45.4978Z" fill="#281812"></path>
    <path d="M10.1129 20.31V16.372C10.1129 15.5174 9.757 14.6628 8.29136 14.2606H8.22854C9.35918 13.8752 10.1129 12.9703 10.1129 11.9481V6.68622C10.1129 5.27859 8.68917 4.13908 6.9304 4.13908H0.0209351V4.18936C0.418753 4.30666 0.753757 4.62505 0.753757 4.94344V20.2933C0.753757 20.6619 0.439691 20.9971 0.0209351 21.1144V21.1646H5.00413V21.1144C4.58537 20.9636 4.2713 20.6452 4.2713 20.2933V14.4952H5.52757H5.59038C6.21852 14.4952 6.5954 14.6963 6.5954 15.199V20.2765C6.5954 20.6452 6.28133 20.9803 5.86257 21.0976V21.1479H10.8458V21.0976C10.427 20.9971 10.1129 20.6787 10.1129 20.31ZM6.5954 11.6297C6.5954 12.1156 6.07195 12.5346 5.44382 12.5346C4.81568 12.5346 4.29224 12.1156 4.29224 11.6297V6.93758C4.29224 6.43485 4.81568 6.03268 5.44382 6.03268H5.52757C6.1557 6.03268 6.5954 6.4181 6.5954 6.93758V11.6297Z" fill="#281812"></path>
    <path d="M33.7517 18.5672V14.4784C33.7517 13.7076 33.3539 13.0205 32.6001 12.5513C33.3539 12.0654 33.7517 11.3783 33.7517 10.6242V6.73649V6.68622C33.7517 5.27859 32.2651 4.13908 30.5063 4.13908H23.5131V4.18936C23.9319 4.30666 24.2041 4.62505 24.2459 5.01047V20.2933C24.225 20.6787 23.9319 20.9971 23.5131 21.1144V21.1646H30.5063C32.2861 21.1646 33.7517 19.9916 33.7517 18.5672ZM30.1713 18.3661C30.1713 18.8521 29.6479 19.2711 29.0198 19.2711H28.9988C28.3707 19.2711 27.8682 18.8521 27.8682 18.3661V14.6125L29.7526 13.9589C30.0248 14.1265 30.1713 14.3779 30.1713 14.6628V18.3661ZM30.1713 10.8085C30.1713 11.0264 30.1713 11.2778 29.9201 11.3615L27.8263 12.0989V6.93758C27.8263 6.45161 28.3707 6.03268 28.9779 6.03268H28.9988C29.627 6.03268 30.1504 6.45161 30.1504 6.93758V10.8085H30.1713Z" fill="#281812"></path>
    <path d="M65.7865 4.13908V4.18936C66.2053 4.30666 66.5193 4.65857 66.5193 5.01047L64.8862 14.4952L63.253 5.01047C63.253 4.64181 63.5671 4.30666 63.9858 4.18936V4.13908H58.7514V4.18936C59.1073 4.30666 59.3795 4.55802 59.4423 4.87641L62.6249 20.2765C62.6249 20.6619 62.2899 20.9803 61.8711 21.1311V21.1814H67.8803V21.1311C67.4615 20.9803 67.1475 20.6619 67.1475 20.2765L70.3091 4.87641C70.3928 4.55802 70.665 4.32342 71 4.18936V4.13908H65.7865Z" fill="#281812"></path>
    <path d="M41.8755 23.008C42.2943 23.1588 42.6084 23.6112 42.6084 24.0134V39.0951C42.6084 39.4805 42.2943 39.7989 41.8755 39.9497V40H46.9425V39.933C46.4818 39.7822 46.1887 39.4638 46.1887 39.0783V23.9966C46.1887 23.6112 46.5028 23.142 46.9425 22.9912V22.9409H41.8755V23.008Z" fill="#281812"></path>
    <path d="M65.7865 22.9912C66.1843 23.1085 66.4774 23.4604 66.5193 23.8123L64.8862 28.5379L63.2111 23.8123C63.2321 23.4437 63.5462 23.1085 63.9649 22.9912V22.9409H59.1911V22.9912C59.547 23.1085 59.8192 23.3599 59.882 23.6783L63.0646 32.0737V39.0783C63.0646 39.4638 62.7296 39.7822 62.3108 39.933V39.9832H67.3778V39.933C66.959 39.7822 66.6449 39.4638 66.6449 39.0783V32.057L69.8065 23.6615C69.8694 23.3431 70.1625 23.1085 70.4975 22.9744V22.9242H65.7656V22.9912H65.7865Z" fill="#281812"></path>
    <path d="M21.8591 39.1286V25.5551C21.8591 24.114 20.3725 22.9577 18.6137 22.9577H15.5777C13.7771 22.9577 12.3324 24.1307 12.3324 25.5551V39.1286C12.3114 39.4973 12.0183 39.8157 11.5995 39.933V39.9832H15.9127V33.4478L18.2578 32.5932V33.7327V39.9832H22.6128V39.933C22.1731 39.8157 21.8591 39.4973 21.8591 39.1286ZM15.9127 25.7562C15.9127 25.2702 16.4571 24.8513 17.0643 24.8513H17.0852C17.7134 24.8513 18.2368 25.2702 18.2368 25.7562V30.0964L15.8918 30.9342V30.3812V25.7562H15.9127Z" fill="#281812"></path>
    <path d="M39.5096 39.1621V25.5551C39.5096 24.114 38.0439 22.9577 36.2642 22.9577H33.2911L31.8045 23.4437L30.276 22.9577H23.3456V23.008C23.7644 23.1588 24.0784 23.4772 24.0784 23.8626V39.0951C24.0784 39.4805 23.7434 39.8324 23.3456 39.9497V40H28.4126V39.933C27.9938 39.7822 27.6797 39.4973 27.6797 39.1119V25.6054V25.5886C27.6797 25.1194 28.266 24.8513 28.7685 24.8513H28.7894C29.3966 24.8513 29.941 25.2367 29.941 25.7059V30.1801V31.9564V33.4143L33.5214 32.124V31.9564V30.1801V25.7059C33.5214 25.2367 34.0658 24.8513 34.6729 24.8513H34.6939C35.322 24.8513 35.8455 25.2702 35.8455 25.7562V39.0951C35.8455 39.4805 35.5314 39.7989 35.1126 39.9497V40H40.1796V39.933C39.8446 39.8157 39.5096 39.4805 39.5096 39.1621Z" fill="#281812"></path>
    <path d="M55.527 37.6205C55.527 37.8886 55.2548 38.0897 54.9198 38.0897H53.7682C53.4332 38.0897 53.161 37.8886 53.161 37.6205V23.8458C53.161 23.4604 53.4751 23.142 53.8938 22.9912V22.9409H48.8478V22.9912C49.2666 23.142 49.5807 23.4604 49.5807 23.8458V39.0951C49.5807 39.4805 49.2666 39.7989 48.8478 39.9497V40H59.1283V34.5706L55.5479 35.8609V37.6205H55.527Z" fill="#281812"></path>
    <path d="M12.3533 18.5672C12.3533 20.0084 13.8189 21.1646 15.5986 21.1646H18.6137C20.4143 21.1646 21.859 19.9916 21.859 18.5672V6.71972V4.18935L18.5509 5.36237L18.2787 5.46291V6.04942V18.3661C18.2787 18.8689 17.7552 19.2878 17.1271 19.2878H17.0852C16.478 19.2878 15.9336 18.8689 15.9336 18.3661V8.86467V6.3343L12.6255 7.50732L12.3533 7.60786V10.1047V18.5672Z" fill="#281812"></path>
    <path d="M0 23.008C0.418756 23.1253 0.732822 23.4939 0.732822 23.8291V23.9464V38.5253V39.1119C0.732822 39.447 0.418756 39.8157 0 39.933V39.9832H5.02506V39.933C4.60631 39.8157 4.29224 39.4638 4.29224 39.1286V33.3808L7.41197 32.2748L7.57948 32.2078V29.6774L6.72103 29.9791L6.5954 30.0293L6.55352 30.0461L4.27131 30.8672V28.3871V25.3205C4.27131 25.0524 4.5435 24.8513 4.85756 24.8513H7.03509C7.3701 24.8513 7.62135 25.0524 7.62135 25.3205V25.354V26.0243V28.0184V28.1022L10.1967 27.1973V26.1584V26.0243V25.354V22.9577H0.0209375V23.008H0Z" fill="#281812"></path>
    <path d="M51.2138 4.70884V2.17847L47.6125 3.46879V5.99916L48.3244 5.7478L51.2138 4.70884Z" fill="#281812"></path>
</svg>