<svg width="115" height="49" viewBox="0 0 115 49" fill="none" xmlns="http://www.w3.org/2000/svg">
<path fill-rule="evenodd" clip-rule="evenodd" d="M78 32H86.0987L89.5784 21.9342L93.1956 18.8489L96.0456 27.9519C96.9271 30.7655 97.8339 32 99.8131 32H106.013L99.617 14.1373L115 0H105.065L95.7273 10.066C94.6399 11.2378 93.5394 12.3911 92.4358 13.7688H92.342L97.0043 0H88.9057L78 32Z" fill="#1AB248"/>
<path fill-rule="evenodd" clip-rule="evenodd" d="M77.3099 0.365012C79.8729 0.365425 82.3586 0.365825 84.4407 0.366006L82.7538 5.54427C82.2238 7.17122 80.8779 7.9496 77.912 7.9496C72.7622 7.9496 65.1421 7.9487 59.9917 7.94781L61.6787 2.76954C62.2086 1.14169 63.5541 0.36377 66.5202 0.36377C69.5883 0.36377 73.533 0.364404 77.3099 0.365012ZM62.3607 12.2531C67.5103 12.2531 75.1307 12.254 80.281 12.2553L78.5941 17.4334C78.0641 19.0608 76.7187 19.8387 73.7523 19.8387C68.6024 19.8387 60.9824 19.8378 55.832 19.8364L57.5189 14.6589C58.0489 13.0312 59.3946 12.2531 62.3607 12.2531ZM75.9177 24.1437C70.7674 24.1428 63.1473 24.1419 57.9974 24.1419C55.0309 24.1419 53.6856 24.9203 53.1557 26.5468L51.4688 31.7257C56.6191 31.7262 64.2392 31.7278 69.3893 31.7278C72.3552 31.7278 73.7008 30.9492 74.2308 29.3218L75.9177 24.1437Z" fill="#1AB248"/>
<path fill-rule="evenodd" clip-rule="evenodd" d="M40.7825 7.70742L45.1875 7.70925C48.9407 7.71016 48.084 12.3189 46.1845 16.8106C44.5109 20.7695 41.5445 24.2632 38.0057 24.2627L30.6622 24.2618C27.7332 24.2618 26.3828 25.0559 25.8131 26.7153L24 31.9991L29.3849 32L34.6486 31.9569C39.3167 31.919 43.1384 31.5873 47.6074 27.6384C52.3303 23.4667 57.8369 12.6296 56.8935 6.36145C56.1544 1.44955 53.47 0.00228131 46.9697 0.00182505L35.1243 0L28.2272 19.847L32.6095 19.8525C35.2176 19.8554 36.5265 19.8876 37.9138 16.217L40.7825 7.70742Z" fill="#1AB248"/>
<path fill-rule="evenodd" clip-rule="evenodd" d="M20.2061 7.73503L16.9456 7.73594C10.4139 7.73913 4.81683 24.2654 12.5398 24.2627L17.502 24.2618C20.3639 24.2618 22.4884 25.3059 21.5477 28.1213L20.2514 31.9991L14.9886 32L10.7077 31.9569C5.23131 31.9021 1.69736 29.2049 0.424896 25.1095C-0.952092 20.6776 0.99197 11.4339 6.63438 5.51257C9.90826 2.07737 14.4433 0.00228131 20.2578 0.00182505L31 0L29.3208 4.84323C28.2358 7.97251 26.0192 7.73913 24.7542 7.73868L20.2061 7.73503Z" fill="#1AB248"/>
<path d="M5.7832 44.3848H2.34961V48H0.867188V39.4688H6.28711V40.6641H2.34961V43.2012H5.7832V44.3848ZM14.6334 43.957C14.6334 44.793 14.4889 45.5273 14.1998 46.1602C13.9108 46.7891 13.4967 47.2734 12.9577 47.6133C12.4225 47.9492 11.8053 48.1172 11.1061 48.1172C10.4147 48.1172 9.7975 47.9492 9.25453 47.6133C8.71547 47.2734 8.2975 46.791 8.00063 46.166C7.70766 45.541 7.55922 44.8203 7.55531 44.0039V43.5234C7.55531 42.6914 7.7018 41.957 7.99477 41.3203C8.29164 40.6836 8.70766 40.1973 9.24281 39.8613C9.78188 39.5215 10.3991 39.3516 11.0944 39.3516C11.7897 39.3516 12.4049 39.5195 12.9401 39.8555C13.4791 40.1875 13.8952 40.668 14.1881 41.2969C14.4811 41.9219 14.6295 42.6504 14.6334 43.4824V43.957ZM13.151 43.5117C13.151 42.5664 12.9713 41.8418 12.612 41.3379C12.2565 40.834 11.7506 40.582 11.0944 40.582C10.4538 40.582 9.9518 40.834 9.58852 41.3379C9.22914 41.8379 9.04555 42.5469 9.03773 43.4648V43.957C9.03773 44.8945 9.21938 45.6191 9.58266 46.1309C9.94984 46.6426 10.4577 46.8984 11.1061 46.8984C11.7623 46.8984 12.2663 46.6484 12.6178 46.1484C12.9733 45.6484 13.151 44.918 13.151 43.957V43.5117ZM19.6048 44.7129H17.9524V48H16.47V39.4688H19.47C20.4544 39.4688 21.2141 39.6895 21.7493 40.1309C22.2845 40.5723 22.552 41.2109 22.552 42.0469C22.552 42.6172 22.4134 43.0957 22.136 43.4824C21.8626 43.8652 21.4798 44.1602 20.9876 44.3672L22.9036 47.9238V48H21.3157L19.6048 44.7129ZM17.9524 43.5234H19.4759C19.9759 43.5234 20.3665 43.3984 20.6477 43.1484C20.929 42.8945 21.0696 42.5488 21.0696 42.1113C21.0696 41.6543 20.9388 41.3008 20.677 41.0508C20.4192 40.8008 20.0325 40.6719 19.5169 40.6641H17.9524V43.5234ZM31.0097 45.8906L32.3222 39.4688H33.7929L31.8241 48H30.4062L28.7831 41.7715L27.1249 48H25.7011L23.7323 39.4688H25.203L26.5273 45.8789L28.1562 39.4688H29.3984L31.0097 45.8906ZM39.7545 46.0137H36.4498L35.7584 48H34.2173L37.44 39.4688H38.7701L41.9986 48H40.4517L39.7545 46.0137ZM36.8658 44.8184H39.3384L38.1021 41.2793L36.8658 44.8184ZM46.466 44.7129H44.8137V48H43.3312V39.4688H46.3312C47.3156 39.4688 48.0754 39.6895 48.6105 40.1309C49.1457 40.5723 49.4133 41.2109 49.4133 42.0469C49.4133 42.6172 49.2746 43.0957 48.9973 43.4824C48.7238 43.8652 48.341 44.1602 47.8488 44.3672L49.7648 47.9238V48H48.177L46.466 44.7129ZM44.8137 43.5234H46.3371C46.8371 43.5234 47.2277 43.3984 47.509 43.1484C47.7902 42.8945 47.9309 42.5488 47.9309 42.1113C47.9309 41.6543 47.8 41.3008 47.5383 41.0508C47.2805 40.8008 46.8937 40.6719 46.3781 40.6641H44.8137V43.5234ZM51.1795 48V39.4688H53.6991C54.453 39.4688 55.1209 39.6367 55.703 39.9727C56.2889 40.3086 56.742 40.7852 57.0623 41.4023C57.3827 42.0195 57.5428 42.7266 57.5428 43.5234V43.9512C57.5428 44.7598 57.3807 45.4707 57.0565 46.084C56.7362 46.6973 56.2772 47.1699 55.6795 47.502C55.0858 47.834 54.4041 48 53.6346 48H51.1795ZM52.662 40.6641V46.8164H53.6287C54.4061 46.8164 55.0018 46.5742 55.4159 46.0898C55.8338 45.6016 56.0467 44.9023 56.0545 43.9922V43.5176C56.0545 42.5918 55.8534 41.8848 55.451 41.3965C55.0487 40.9082 54.4647 40.6641 53.6991 40.6641H52.662Z" fill="#1AB248"/>
</svg>
