<?xml version="1.0" encoding="utf-8"?>
<!-- Generator: Adobe Illustrator 22.1.0, SVG Export Plug-In . SVG Version: 6.00 Build 0)  -->
<svg version="1.1" id="Layer_1" xmlns="http://www.w3.org/2000/svg" xmlns:xlink="http://www.w3.org/1999/xlink" x="0px" y="0px"
	 viewBox="0 0 720.4 239.9" style="enable-background:new 0 0 720.4 239.9;" xml:space="preserve">
<style type="text/css">
	.st0{fill:#48AF59;}
	.st1{fill:#020203;}
</style>
<g>
	<path class="st0" d="M180,62V4c0-2.1-1.7-3.9-3.8-3.9H32.6c-1,0-2,0.4-2.7,1.1l-28.7,29C0.4,31,0,32,0,33v87c0,1.5,0.8,2.8,2.1,3.5
		l101.2,51.1l-99.5-0.4c-1,0-2,0.4-2.7,1.1c-0.7,0.7-1.1,1.7-1.1,2.7v58c0,2.1,1.7,3.9,3.8,3.9h114.9c1,0,2-0.4,2.7-1.1l57.4-57.3
		c0.7-0.7,1.1-1.7,1.1-2.8v-58.8c0-1.5-0.8-2.8-2.1-3.5L77.5,65.9h98.7C178.3,65.9,180,64.2,180,62z M117.2,232.3H7.7V182l159.2,0.7
		L117.2,232.3z M172.3,175l-52-0.2l0.1-0.1l-112.8-57V39.3l164.7,83.2V175z M172.3,58.2H62.2L10.3,32L34.1,7.9h138.2V58.2z"/>
	<path class="st0" d="M515.4,172.2h-77.5c-1.8,0-3.2,1.4-3.2,3.2v0.2c0,1.8,1.4,3.2,3.2,3.2h77.5c1.8,0,3.2-1.4,3.2-3.2v-0.2
		C518.6,173.7,517.1,172.2,515.4,172.2z"/>
	<path class="st0" d="M515.4,202.7h-77.5c-1.8,0-3.2,1.4-3.2,3.2v0.2c0,1.8,1.4,3.2,3.2,3.2h77.5c1.8,0,3.2-1.4,3.2-3.2v-0.2
		C518.6,204.2,517.1,202.7,515.4,202.7z"/>
	<path class="st0" d="M515.4,233.2h-77.5c-1.8,0-3.2,1.4-3.2,3.2v0.2c0,1.8,1.4,3.2,3.2,3.2h77.5c1.8,0,3.2-1.4,3.2-3.2v-0.2
		C518.6,234.6,517.1,233.2,515.4,233.2z"/>
	<g>
		<path class="st1" d="M383.9,112.2c-1.5,2.4-3.1,2.4-4.5,0l-5.6-8.8c-2.3-3.6-4.8-7.7-7.7-12.2c-2.9-4.5-5.9-9.4-9.2-14.6
			c-3.3-5.2-6.6-10.6-10-16.2l-0.2-0.4H339v67.7h8.1V80c0-1.9,0.1-2.8,0.2-3.2c0.3,0.3,0.9,0.9,2,2.6c2.1,3.2,4.3,6.7,6.7,10.6
			c2.4,3.9,4.9,7.9,7.5,11.9c2.5,4.1,5,8.1,7.5,12.1c2.5,4,4.8,7.7,6.9,11.1c0.4,0.8,0.9,1.4,1.6,1.9c0.7,0.4,1.4,0.6,2.2,0.6
			c1.7,0,2.9-0.8,3.7-2.3l28.7-45.9c1.4-1.9,2-2.1,1.9-2.1c0,0,0.4,0.4,0.4,2.8v47.5h8V60h-7.7L383.9,112.2z"/>
		<polygon class="st1" points="515.1,89.8 445.8,89.8 445.8,60 437.7,60 437.7,127.7 445.8,127.7 445.8,97.9 515.1,97.9 
			515.1,127.7 523.2,127.7 523.2,60 515.1,60 		"/>
		<path class="st1" d="M576.5,60c-1.7,0-2.9,0.8-3.7,2.3c-5.9,9.5-12.3,19.7-19,30.5c-6.8,10.8-13.8,22.1-21,33.7l-0.7,1.1h9.4
			l9-14.2h52.2c1.2,2,2.1,3.5,2.8,4.6c0.7,1.1,1.3,2.1,1.8,2.9l1.6,2.5c0.6,0.9,1.4,2.2,2.4,3.8l0.2,0.4h9.4l-40.8-65.2
			C579.4,60.9,578.2,60,576.5,60z M597.6,105.3h-42l18.7-29.9c1.4-2.3,3-2.4,4.6,0L597.6,105.3z"/>
		<path class="st1" d="M317.5,89.8h-58.4c-3,0-5.6-0.7-7.6-2.1c-2.1-1.3-3.1-2.9-3.1-4.8V60.1h-8.2V83c0,1.9,0.5,3.8,1.5,5.5
			c1.2,2,2.6,4.1,5.2,5.9c2.4,1.7,6.5,3.6,12.2,3.6h58.4v14.7c0,1.8-1,3.4-2.9,4.8c-2,1.4-4.5,2.1-7.7,2.1h-48
			c-2.6,0-4.9-0.6-6.7-1.7c-2-1.3-3.3-3-3.9-5.3l-0.1-0.6h-8l0.1,0.9c0.7,4.5,2.8,8.1,6.3,10.8c3.4,2.6,7.6,4,12.4,4h48
			c5.1,0,9.6-1.4,13.2-4.3c3.7-2.9,5.6-6.5,5.6-10.7V60.1h-8.2V89.8z"/>
		<path class="st1" d="M653.4,60c-5,0-9.4,1.5-13.1,4.4c-3.8,2.9-5.7,6.5-5.7,10.6c0,3.8,0.2,7.3,0.5,10.6c0.2,1.3,0.7,2.7,1.5,4
			c0.4,0.6,1,1.3,1.8,2.2c2.6,2.9,6.3,4.5,8.9,5.3c1.4,0.5,2.8,0.7,5.3,0.7l-18.6,29.9h9.4l18.8-29.9h49.8v29.9h8.1V60H653.4z
			 M711.9,68.2v21.6h-58.6c-3,0-5.6-0.7-7.7-2c-2.1-1.3-3.1-2.9-3.1-4.8V75c0-1.8,1-3.3,3.1-4.7c2.1-1.4,4.7-2.1,7.7-2.1H711.9z"/>
	</g>
	<g>
		<path class="st1" d="M251.4,182.5c2.1-1.4,4.7-2.1,7.8-2.1h48c2.7,0,4.9,0.6,6.7,1.6c2,1.2,3.2,3,3.8,5.3l0.1,0.6h8.1l-0.1-0.9
			c-0.7-4.5-2.9-8.1-6.4-10.8c-3.4-2.7-7.5-4-12.3-4h-48c-5.1,0-9.6,1.5-13.3,4.4c-3.7,2.9-5.5,6.5-5.5,10.6v7.9
			c0,4.2,1.9,7.9,5.6,10.7c3.7,2.8,8.1,4.3,13.2,4.3H307c3.1,0,5.6,0.7,7.7,2.1c2.1,1.3,3.1,2.9,3.1,4.8v7.9c0,1.9-1,3.4-3.1,4.8
			c-2,1.4-4.6,2.1-7.6,2.1h-48c-2.7,0-4.9-0.6-6.8-1.7c-2-1.2-3.2-3-3.8-5.3l-0.1-0.6h-8.1l0.1,0.9c0.7,4.6,2.9,8.3,6.5,10.9
			c3.4,2.6,7.5,3.9,12.3,3.9h48c5.2,0,9.6-1.4,13.2-4.3c3.7-2.9,5.6-6.5,5.6-10.7V217c0-4.2-1.9-7.8-5.6-10.7
			c-3.6-2.8-8-4.3-13.2-4.3h-48c-3.1,0-5.7-0.7-7.7-2.1c-2-1.3-3-2.9-3-4.8v-7.9C248.4,185.3,249.3,183.8,251.4,182.5z"/>
		<path class="st1" d="M612.8,176.6c-3.7-2.9-8.2-4.4-13.2-4.4h-66.6v67.6h66.6c5.1,0,9.5-1.5,13.2-4.4c3.7-2.9,5.6-6.5,5.6-10.7
			v-37.7C618.4,183,616.5,179.5,612.8,176.6z M610.2,187.2v37.7c0,1.9-1,3.5-3.1,4.8c-2.1,1.3-4.6,2-7.6,2h-58.5v-51.5h58.5
			c2.8,0,5.4,0.7,7.6,2.2C609.2,183.8,610.2,185.3,610.2,187.2z"/>
		<path class="st1" d="M672.9,174.6c-0.8-1.6-2-2.4-3.7-2.4c-1.7,0-2.9,0.8-3.7,2.3c-5.9,9.5-12.3,19.7-19,30.5
			c-6.8,10.8-13.8,22.1-21,33.7l-0.7,1.1h9.4l9-14.2h52.2c1.2,2,2.1,3.5,2.8,4.6c0.7,1.1,1.3,2.1,1.8,2.9l1.6,2.5
			c0.6,0.9,1.4,2.2,2.4,3.8l0.2,0.4h9.4L672.9,174.6z M690.3,217.5h-42l18.7-29.9c1.4-2.3,3-2.4,4.6,0L690.3,217.5z"/>
		<path class="st1" d="M408.1,209.3c2.6-0.9,6.3-2.5,8.9-5.3c0.8-0.9,1.4-1.6,1.8-2.2c0.9-1.3,1.4-2.6,1.5-4
			c0.3-3.2,0.5-6.7,0.5-10.5c0-4.1-1.9-7.6-5.7-10.6c-3.7-2.9-8.1-4.4-13.1-4.4h-66.6v67.6h8.1V210h49.8l18.8,29.9h9.4L402.8,210
			C405.3,209.9,406.7,209.7,408.1,209.3z M409.8,199.9c-2.1,1.3-4.7,2-7.7,2h-58.6v-21.6h58.6c3,0,5.5,0.7,7.7,2.1
			c2.1,1.3,3.1,2.9,3.1,4.7v7.9C412.8,197,411.8,198.6,409.8,199.9z"/>
	</g>
</g>
</svg>
